<svg width="26" height="23" viewBox="0 0 26 23" fill="none" xmlns="http://www.w3.org/2000/svg">
<path d="M0.84 0.299992C0.376068 0.299992 0 0.676074 0 1.13999C0 1.60391 0.376068 1.97999 0.84 1.97999H3.5175L6.405 15.6037C6.51924 16.1166 6.85535 16.5434 7.28 16.54H21.28C21.7238 16.5462 22.132 16.1438 22.132 15.7C22.132 15.2562 21.7238 14.8537 21.28 14.86H7.9625L7.60374 13.18H22.4C22.7761 13.1772 23.1314 12.8907 23.2137 12.5237L25.1737 4.12374C25.283 3.63624 24.8596 3.10357 24.36 3.09999H5.4775L5.0225 0.964992C4.94301 0.592004 4.58136 0.2996 4.2 0.299992H0.84ZM5.8275 4.77999H23.3013L21.735 11.5H7.25374L5.8275 4.77999ZM10.08 17.1C8.54356 17.1 7.28 18.3635 7.28 19.9C7.28 21.4365 8.54356 22.7 10.08 22.7C11.6164 22.7 12.88 21.4365 12.88 19.9C12.88 18.3636 11.6164 17.1 10.08 17.1ZM18.48 17.1C16.9436 17.1 15.68 18.3635 15.68 19.9C15.68 21.4365 16.9436 22.7 18.48 22.7C20.0164 22.7 21.28 21.4365 21.28 19.9C21.28 18.3636 20.0164 17.1 18.48 17.1ZM10.08 18.78C10.7085 18.78 11.2 19.2715 11.2 19.9C11.2 20.5285 10.7085 21.02 10.08 21.02C9.45154 21.02 8.96 20.5285 8.96 19.9C8.96 19.2715 9.45154 18.78 10.08 18.78ZM18.48 18.78C19.1085 18.78 19.6 19.2715 19.6 19.9C19.6 20.5285 19.1085 21.02 18.48 21.02C17.8515 21.02 17.36 20.5285 17.36 19.9C17.36 19.2715 17.8515 18.78 18.48 18.78Z" fill="#4B6147"/>
</svg>
