<svg width="24" height="24" viewBox="0 0 24 24" fill="none" xmlns="http://www.w3.org/2000/svg">
<path d="M11.7009 20.9115C11.6114 20.8565 9.48431 19.5391 7.17575 17.5442C5.81296 16.3666 4.67343 15.1979 3.78887 14.0708C2.66182 12.6346 1.94276 11.2548 1.65164 9.96953C1.55101 9.54345 1.5 9.10423 1.5 8.664C1.5 8.62581 1.50058 8.58749 1.50154 8.54975C1.531 7.06793 2.12768 5.6778 3.18181 4.63548C4.24715 3.58205 5.6589 3.00195 7.157 3.00195C8.38858 3.00195 9.55935 3.39111 10.5427 4.12744C11.1343 4.57045 11.6258 5.11371 11.9994 5.73239C12.373 5.11327 12.8645 4.56956 13.4564 4.12622C14.4399 3.38942 15.611 3 16.843 3C18.3413 3 19.7532 3.58031 20.8187 4.634C21.8729 5.67663 22.4695 7.06694 22.4986 8.54895C22.4995 8.58669 22.5 8.62423 22.5 8.66226C22.5 9.09462 22.4508 9.52652 22.3537 9.94593C22.0676 11.2334 21.353 12.616 20.2297 14.0551C19.3482 15.1846 18.2114 16.3557 16.8509 17.536C14.5463 19.5352 12.4205 20.8559 12.3312 20.9111C12.2353 20.9704 12.1255 21 12.0157 21C11.9061 21 11.7965 20.9705 11.7009 20.9115Z" fill="#698764"/>
</svg>
