<svg width="60" height="60" viewBox="0 0 60 60" fill="none" xmlns="http://www.w3.org/2000/svg">
<rect width="60" height="60" rx="30" fill="#ECF0EB"/>
<path d="M15.9421 17.5C15.4231 17.4968 15.003 17.9464 15 18.4987V37.9433C14.997 38.4989 15.4141 38.9485 15.9331 38.9517C15.9361 38.9517 15.9391 38.9517 15.9421 38.9517H26.5482L25.297 42.9883H23.4098C23.3768 42.9851 23.3438 42.9851 23.3138 42.9883C22.7948 43.0172 22.3957 43.4893 22.4228 44.0449C22.4498 44.6004 22.8908 45.0275 23.4098 44.9986H36.5992C37.1182 44.9986 37.5382 44.549 37.5382 43.9935C37.5382 43.4379 37.1182 42.9883 36.5992 42.9883H34.712L33.4608 38.9517H44.0669C44.5859 38.9485 45.003 38.4989 45 37.9433C45 37.9433 45 37.9433 45 37.9401V18.4987C45 17.9496 44.5829 17.5032 44.0699 17.5H15.9421ZM16.8752 19.5071H43.1278V36.9446H32.1557H27.7543H16.8752V19.5071ZM26.5122 21.8514C25.9931 21.8417 25.5671 22.2817 25.5551 22.834C25.5551 22.8405 25.5551 22.8501 25.5551 22.8565L25.5611 33.5984C25.5641 34.154 25.9841 34.6003 26.5032 34.5971C26.6982 34.5971 26.8842 34.5297 27.0432 34.4109L34.0549 29.0351C34.4749 28.7108 34.571 28.0846 34.2709 27.635C34.2109 27.5451 34.1389 27.468 34.0549 27.4038L27.0372 22.0376C26.8842 21.9188 26.7012 21.8546 26.5122 21.8514ZM27.4332 24.8058L31.8947 28.2226L27.4392 31.6523L27.4332 24.8058ZM28.5224 38.9549H31.4836L32.7348 42.9915H27.2712L28.5224 38.9549Z" fill="#4B6147"/>
</svg>
