<svg width="60" height="60" viewBox="0 0 60 60" fill="none" xmlns="http://www.w3.org/2000/svg">
<rect width="60" height="60" rx="30" fill="#ECF0EB"/>
<path d="M30.1209 21.0531L29.3389 19.9255C29.3388 19.9253 29.3388 19.9252 29.3387 19.9251C28.0835 18.1084 25.9787 17.1407 23.4806 17.1387C21.7198 17.087 20.0002 17.6769 18.6419 18.7987L18.6345 18.8048L18.6273 18.8112C17.1699 20.1125 16.4094 22.1233 16.4094 24.5478C16.4094 28.0534 18.322 31.3739 20.9088 34.4008C23.5017 37.435 26.839 40.2501 29.8063 42.7382L30.1266 43.0069L30.4477 42.7391C33.4283 40.2541 36.7649 37.4454 39.3541 34.4149C41.9373 31.3913 43.8421 28.0728 43.8421 24.5624C43.8421 22.1413 43.1017 20.127 41.6217 18.8235L41.6163 18.8188L41.6108 18.8142C40.2534 17.6861 38.5319 17.0906 36.7678 17.1387C34.2723 17.1406 32.1682 18.1087 30.9061 19.9242L30.1209 21.0531ZM29.7128 19.6652L30.1234 20.2581L30.5346 19.6657C31.8319 17.7971 34.0455 16.6842 36.7748 16.6842V16.1842L36.7868 16.6841C38.6599 16.6391 40.4858 17.2747 41.9259 18.4731C43.4545 19.8211 44.2966 21.9179 44.2966 24.5478C44.2966 28.0957 42.4382 31.4739 39.737 34.6527C37.0405 37.8259 33.5642 40.7321 30.43 43.3456C30.3397 43.4167 30.2286 43.4565 30.1136 43.4588L30.1136 43.4587L30.1021 43.4592C30.055 43.4613 30.0079 43.454 29.9637 43.4379C29.9194 43.4217 29.8787 43.397 29.844 43.3651L29.8357 43.3575L29.8271 43.3503L29.7148 43.256C26.6078 40.6492 23.1802 37.7735 20.5143 34.6402C17.813 31.4653 15.9548 28.0954 15.9548 24.5478C15.9548 21.9323 16.7971 19.8349 18.3266 18.4867C19.7607 17.2795 21.5867 16.6384 23.4608 16.684L23.4608 16.6842H23.473C26.2238 16.6842 28.4191 17.7968 29.7128 19.6652Z" fill="#4B6147" stroke="#4B6147"/>
</svg>
