<svg width="60" height="60" viewBox="0 0 60 60" fill="none" xmlns="http://www.w3.org/2000/svg">
<rect width="60" height="60" rx="30" fill="#ECF0EB"/>
<path fill-rule="evenodd" clip-rule="evenodd" d="M27.0367 15.2615C27.4666 14.6436 28.1617 14.25 29.1029 14.25C30.1291 14.25 30.8517 14.6782 31.2934 15.2828C31.515 15.5863 31.6543 15.9172 31.7358 16.231H33.2066C33.6626 16.231 34.2553 16.4111 34.7435 16.8115C35.139 17.1357 35.4618 17.6021 35.5923 18.2124H40.9906C41.4048 18.2124 41.7406 18.5482 41.7406 18.9624V45.0001C41.7406 45.4144 41.4048 45.7501 40.9906 45.7501H17.5C17.0858 45.7501 16.75 45.4144 16.75 45.0001V18.9624C16.75 18.5482 17.0858 18.2124 17.5 18.2124H22.8977C23.0316 17.6047 23.3647 17.1544 23.7825 16.8535C24.2912 16.4873 24.8791 16.3725 25.2821 16.3725H26.583C26.6572 15.9922 26.7978 15.605 27.0367 15.2615ZM34.7655 20.8465C35.0841 20.564 35.3597 20.1876 35.5164 19.7124H40.2406V44.2501H18.25V19.7124H22.9723C23.1291 20.1876 23.4047 20.564 23.7232 20.8465C24.1978 21.2673 24.7584 21.4749 25.1588 21.5416C25.2874 21.563 25.5094 21.574 25.7344 21.5822C25.9827 21.5913 26.3024 21.5988 26.6673 21.6048C27.3979 21.6166 28.322 21.6225 29.2444 21.6225C30.1668 21.6225 31.0909 21.6166 31.8214 21.6048C32.1863 21.5988 32.506 21.5913 32.7543 21.5822C32.9793 21.574 33.2013 21.563 33.3299 21.5416C33.7303 21.4749 34.2909 21.2673 34.7655 20.8465ZM27.2632 17.8725H25.2821C25.1191 17.8725 24.8579 17.9276 24.659 18.0708C24.4984 18.1865 24.334 18.3858 24.334 18.8207C24.334 19.2631 24.5077 19.5373 24.7184 19.7241C24.9512 19.9305 25.2394 20.0343 25.4052 20.0619C25.414 20.0629 25.4459 20.0661 25.5058 20.0699C25.5774 20.0744 25.6723 20.0789 25.7894 20.0832C26.0231 20.0918 26.3313 20.0991 26.6917 20.1049C27.4116 20.1167 28.3271 20.1225 29.2444 20.1225C30.1616 20.1225 31.0771 20.1167 31.797 20.1049C32.1574 20.0991 32.4656 20.0918 32.6993 20.0832C32.8164 20.0789 32.9113 20.0744 32.9829 20.0699C33.0429 20.0661 33.0725 20.063 33.0813 20.0621C33.247 20.0345 33.5374 19.9306 33.7704 19.7241C33.981 19.5373 34.1547 19.2631 34.1547 18.8207C34.1547 18.3782 33.9821 18.1269 33.7924 17.9714C33.573 17.7915 33.3166 17.731 33.2066 17.731H31.0851H30.334V16.981C30.334 16.742 30.2623 16.4143 30.0821 16.1676C29.9294 15.9586 29.6615 15.75 29.1029 15.75C28.6289 15.75 28.4042 15.9225 28.2681 16.1182C28.1034 16.3549 28.0132 16.7156 28.0132 17.1225V17.8725H27.2632ZM37.7091 23.729C37.9968 23.431 37.9885 22.9562 37.6905 22.6685C37.3925 22.3807 36.9177 22.3891 36.63 22.6871L33.1979 26.2417L31.898 24.9418C31.6051 24.6489 31.1303 24.6489 30.8374 24.9418C30.5445 25.2347 30.5445 25.7096 30.8374 26.0025L32.677 27.8421C32.8193 27.9844 33.0127 28.0635 33.2139 28.0618C33.4151 28.06 33.6071 27.9775 33.7469 27.8327L37.7091 23.729ZM20.896 25.1467C20.4818 25.1467 20.146 25.4825 20.146 25.8967C20.146 26.3109 20.4818 26.6467 20.896 26.6467H27.9715C28.3857 26.6467 28.7215 26.3109 28.7215 25.8967C28.7215 25.4825 28.3857 25.1467 27.9715 25.1467H20.896ZM37.6905 29.4604C37.9885 29.7482 37.9968 30.223 37.7091 30.5209L33.7469 34.6247C33.6071 34.7695 33.4151 34.852 33.2139 34.8537C33.0127 34.8555 32.8193 34.7764 32.677 34.6341L30.8374 32.7945C30.5445 32.5016 30.5445 32.0267 30.8374 31.7338C31.1303 31.4409 31.6051 31.4409 31.898 31.7338L33.1979 33.0337L36.63 29.4791C36.9177 29.1811 37.3925 29.1727 37.6905 29.4604ZM20.146 32.6887C20.146 32.2745 20.4818 31.9387 20.896 31.9387H27.9715C28.3857 31.9387 28.7215 32.2745 28.7215 32.6887C28.7215 33.1029 28.3857 33.4387 27.9715 33.4387H20.896C20.4818 33.4387 20.146 33.1029 20.146 32.6887ZM37.7091 37.3129C37.9968 37.015 37.9885 36.5402 37.6905 36.2524C37.3925 35.9647 36.9177 35.9731 36.63 36.271L33.1979 39.8257L31.898 38.5258C31.6051 38.2329 31.1303 38.2329 30.8374 38.5258C30.5445 38.8187 30.5445 39.2936 30.8374 39.5865L32.677 41.4261C32.8193 41.5684 33.0127 41.6475 33.2139 41.6457C33.4151 41.644 33.6071 41.5615 33.7469 41.4167L37.7091 37.3129ZM20.896 38.7307C20.4818 38.7307 20.146 39.0665 20.146 39.4807C20.146 39.8949 20.4818 40.2307 20.896 40.2307H27.9715C28.3857 40.2307 28.7215 39.8949 28.7215 39.4807C28.7215 39.0665 28.3857 38.7307 27.9715 38.7307H20.896Z" fill="#4B6147"/>
</svg>
