<svg width="60" height="60" viewBox="0 0 60 60" fill="none" xmlns="http://www.w3.org/2000/svg">
<rect width="60" height="60" rx="30" fill="#ECF0EB"/>
<path fill-rule="evenodd" clip-rule="evenodd" d="M22.5 14.25C22.0858 14.25 21.75 14.5858 21.75 15V18.4426C21.75 18.8568 22.0858 19.1926 22.5 19.1926H23.4688V40.0825V40.5733C23.4688 40.6693 23.4868 40.7611 23.5197 40.8454C23.8923 43.615 26.2651 45.7505 29.1367 45.7505C32.0083 45.7505 34.3812 43.615 34.7538 40.8454C34.7867 40.7611 34.8047 40.6693 34.8047 40.5733V40.0825V19.1926H35.7785C36.1928 19.1926 36.5285 18.8568 36.5285 18.4426V15C36.5285 14.5858 36.1928 14.25 35.7785 14.25H22.5ZM29.1367 44.2505C26.8348 44.2505 24.9688 42.3844 24.9688 40.0825V33.5042C25.4222 33.9646 26.0528 34.25 26.75 34.25C28.1307 34.25 29.25 33.1307 29.25 31.75C29.25 30.3693 28.1307 29.25 26.75 29.25C26.0528 29.25 25.4222 29.5354 24.9688 29.9958V19.1926H33.3047V37.2921C32.8779 36.9527 32.3376 36.75 31.75 36.75C30.3693 36.75 29.25 37.8693 29.25 39.25C29.25 40.6307 30.3693 41.75 31.75 41.75C32.251 41.75 32.7177 41.6026 33.1089 41.3488C32.5729 43.0316 30.9971 44.2505 29.1367 44.2505ZM34.0722 17.6926H35.0285V15.75H23.25V17.6926H24.2012L24.2188 17.6924H34.0547L34.0722 17.6926ZM28.25 24.25C28.25 23.6977 28.6977 23.25 29.25 23.25C29.8023 23.25 30.25 23.6977 30.25 24.25C30.25 24.8023 29.8023 25.25 29.25 25.25C28.6977 25.25 28.25 24.8023 28.25 24.25ZM29.25 21.75C27.8693 21.75 26.75 22.8693 26.75 24.25C26.75 25.6307 27.8693 26.75 29.25 26.75C30.6307 26.75 31.75 25.6307 31.75 24.25C31.75 22.8693 30.6307 21.75 29.25 21.75ZM26.75 30.75C26.1977 30.75 25.75 31.1977 25.75 31.75C25.75 32.3023 26.1977 32.75 26.75 32.75C27.3023 32.75 27.75 32.3023 27.75 31.75C27.75 31.1977 27.3023 30.75 26.75 30.75ZM30.75 39.25C30.75 38.6977 31.1977 38.25 31.75 38.25C32.3023 38.25 32.75 38.6977 32.75 39.25C32.75 39.8023 32.3023 40.25 31.75 40.25C31.1977 40.25 30.75 39.8023 30.75 39.25Z" fill="#4B6147"/>
</svg>
