<svg width="375" height="557" viewBox="0 0 375 557" fill="none" xmlns="http://www.w3.org/2000/svg">
<g clip-path="url(#clip0_182_6118)">
<path d="M1393.75 49.7698L1035.85 6.29606C910.715 -8.90408 783.76 5.8961 665.477 49.4733C546.16 93.4311 418.034 108.101 291.869 92.2512C291.869 92.2512 16 56.375 -46.2495 49.7727C-95.1298 44.5885 -375.231 23.6391 -600.775 54.2186C-702.898 68.0644 -767.75 160.785 -767.75 263.842C-767.75 416.565 -629.221 525.651 -476.588 530.893C-359.966 534.898 -264.976 557.128 -46.2495 557.128L160.239 556.657C317.365 556.298 472.794 516.019 612.108 439.556C749.097 364.37 901.703 324.15 1056.23 322.506L1393.75 318.915C1646.08 318.915 1912.8 180.476 2050.39 153.352C2065.56 150.362 2077.38 137.508 2077.38 122.048C2077.38 105.592 2064.06 92.2522 2047.61 91.9136C1890.48 88.6801 1562.92 63.023 1393.75 49.7698Z" fill="#F5ECE0"/>
</g>
<defs>
<clipPath id="clip0_182_6118">
<rect width="1440" height="556.5" fill="white" transform="translate(-65)"/>
</clipPath>
</defs>
</svg>
