<svg width="60" height="60" viewBox="0 0 60 60" fill="none" xmlns="http://www.w3.org/2000/svg">
<rect width="60" height="60" rx="30" fill="#EAD8C0"/>
<path d="M41.0841 45H18.9159C16.7587 45 15 43.1235 15 40.8154V19.1846C15 16.8765 16.7587 15 18.9159 15H41.0841C43.2413 15 45 16.8765 45 19.1846V40.8154C45 43.1235 43.2413 45 41.0841 45ZM18.9159 16.4683C17.5144 16.4683 16.374 17.687 16.374 19.1846V40.8154C16.374 42.313 17.5144 43.5317 18.9159 43.5317H41.0841C42.4856 43.5317 43.626 42.313 43.626 40.8154V19.1846C43.626 17.687 42.4856 16.4683 41.0841 16.4683H18.9159ZM35.2556 26.2617H24.7472C23.0104 26.2617 21.598 24.7523 21.598 22.8994V22.039C21.598 20.183 23.0104 18.6736 24.7472 18.6736H35.2556C36.9896 18.6736 38.402 20.183 38.402 22.039V22.8994C38.402 24.7523 36.9896 26.2617 35.2556 26.2617ZM24.7472 20.1449C23.7716 20.1449 22.972 20.9965 22.972 22.0419V22.9023C22.972 23.9448 23.7689 24.7964 24.7472 24.7964H35.2556C36.2311 24.7964 37.028 23.9448 37.028 22.9023V22.0419C37.028 20.9965 36.2339 20.1449 35.2556 20.1449H24.7472ZM30.6884 24.3001V22.2328C30.6884 21.9597 30.3806 21.7365 30.0014 21.7365C29.6221 21.7365 29.3144 21.9597 29.3144 22.2328V24.3001C29.3144 24.5732 29.6221 24.7964 30.0014 24.7964C30.3806 24.7964 30.6884 24.5732 30.6884 24.3001Z" fill="#4B6147"/>
</svg>
