<svg width="60" height="60" viewBox="0 0 60 60" fill="none" xmlns="http://www.w3.org/2000/svg">
<rect width="60" height="60" rx="30" fill="#EAD8C0"/>
<path fill-rule="evenodd" clip-rule="evenodd" d="M40.3033 15.6187C40.2149 15.4879 40.1015 15.3758 39.9697 15.2889C39.8379 15.202 39.6903 15.142 39.5352 15.1123C39.3801 15.0826 39.2208 15.0837 39.0662 15.1157C38.9115 15.1477 38.7648 15.2099 38.6342 15.2987C38.5085 15.3844 38.4 15.4929 38.3142 15.6187C37.707 16.6368 34.6779 21.8441 34.6779 24.0987C34.6486 25.3581 35.1197 26.5778 35.9881 27.4905C36.8565 28.4032 38.0513 28.9344 39.3106 28.9678C40.5687 28.9325 41.7616 28.4005 42.6284 27.488C43.4952 26.5755 43.9654 25.3569 43.9361 24.0987C43.9361 21.8441 40.9106 16.6368 40.3033 15.6187ZM39.3106 27.5132C38.4438 27.4782 37.6254 27.1041 37.0316 26.4716C36.4379 25.8391 36.1163 24.9987 36.1361 24.1314V24.0987C36.1361 22.9896 37.427 20.0259 39.3106 16.7968C41.1906 20.0259 42.4815 22.9787 42.4815 24.0987V24.1314C42.5013 24.9981 42.1802 25.838 41.5872 26.4704C40.9943 27.1028 40.1768 27.4772 39.3106 27.5132ZM25.4379 24.0987C25.4379 21.8441 22.4124 16.6369 21.8015 15.6187C21.623 15.3556 21.3473 15.1741 21.035 15.1141C20.7228 15.0541 20.3994 15.1205 20.1361 15.2987C20.0104 15.3844 19.9018 15.493 19.8161 15.6187C19.2088 16.6369 16.1834 21.8441 16.1834 24.0987C16.154 25.3569 16.6242 26.5755 17.491 27.488C18.3578 28.4005 19.5507 28.9325 20.8088 28.9678C22.0675 28.9335 23.2614 28.4019 24.129 27.4893C24.9966 26.5767 25.4672 25.3575 25.4379 24.0987ZM20.8088 27.5132C19.9426 27.4773 19.1252 27.1028 18.5322 26.4704C17.9392 25.838 17.6181 24.9981 17.6379 24.1314V24.0987C17.6379 22.9896 18.9288 20.026 20.8088 16.7969C22.6888 20.026 23.9834 22.9787 23.9834 24.0987V24.1314C24.0031 24.9987 23.6815 25.8391 23.0878 26.4716C22.494 27.1041 21.6756 27.4782 20.8088 27.5132ZM29.0446 24.4549C29.343 24.2496 29.697 24.1405 30.0592 24.1422C30.3566 24.1399 30.6501 24.2107 30.9138 24.3483C31.1776 24.4858 31.4035 24.686 31.5719 24.9313C32.4701 26.4695 37.0264 34.3058 37.0264 37.7022C37.0724 39.5973 36.3653 41.4334 35.06 42.8082C33.7548 44.183 31.9578 44.9844 30.0628 45.0367C28.17 44.9806 26.3764 44.1777 25.0737 42.8034C23.771 41.4292 23.065 39.5952 23.1101 37.7022C23.1101 34.3058 27.6519 26.4695 28.5646 24.9313C28.6934 24.7439 28.8562 24.5823 29.0446 24.4549ZM34.0156 41.7875C35.0464 40.6934 35.6054 39.2377 35.5719 37.7349H35.5683V37.7022C35.5683 35.5204 32.9464 30.1276 30.3355 25.7276C30.3013 25.6866 30.2585 25.6536 30.2101 25.631C30.1617 25.6083 30.1089 25.5966 30.0555 25.5967C29.9851 25.5954 29.9161 25.6171 29.8592 25.6585C29.83 25.6785 29.8032 25.7017 29.7792 25.7276C27.1719 30.1276 24.5464 35.5204 24.5464 37.7022V37.7349C24.5139 39.2387 25.0743 40.6949 26.1064 41.7889C27.1386 42.883 28.5597 43.5271 30.0628 43.5822C31.5649 43.5262 32.9848 42.8816 34.0156 41.7875Z" fill="#4B6147"/>
</svg>
