<svg width="60" height="60" viewBox="0 0 60 60" fill="none" xmlns="http://www.w3.org/2000/svg">
<rect width="60" height="60" rx="30" fill="#EAD8C0"/>
<path d="M41.1684 27.9881C40.895 27.5148 40.4084 27.2348 39.8684 27.2348H31.9884V13.1681C31.9884 12.4814 31.5417 11.9014 30.8817 11.7214C30.2217 11.5414 29.5417 11.8148 29.195 12.4081L18.5417 30.5614C18.2684 31.0281 18.2617 31.5948 18.535 32.0681C18.8084 32.5414 19.295 32.8214 19.835 32.8214H27.715V46.8881C27.715 47.5748 28.1617 48.1548 28.8217 48.3348C28.955 48.3681 29.095 48.3881 29.2284 48.3881C29.7484 48.3881 30.235 48.1148 30.515 47.6481L41.1684 29.4948C41.4417 29.0281 41.4484 28.4614 41.175 27.9881H41.1684ZM29.375 46.2748V31.1548H20.1217L30.3217 13.7814V28.9014H39.575L29.375 46.2748Z" fill="#4B6147"/>
</svg>
