<svg width="61" height="60" viewBox="0 0 61 60" fill="none" xmlns="http://www.w3.org/2000/svg">
<rect x="0.5" width="60" height="60" rx="30" fill="#EAD8C0"/>
<path fill-rule="evenodd" clip-rule="evenodd" d="M37.3472 47.5931H37.3539L37.3606 47.5997C37.8139 47.5997 38.1939 47.2331 38.1939 46.7731L38.1965 46.4754V46.4753C38.2123 44.6867 38.295 35.3669 38.2406 32.3197C38.2141 30.9227 38.4967 30.1503 38.7944 29.3365L38.8006 29.3197L38.8114 29.2902C39.1948 28.2461 39.5912 27.1666 39.3006 25.0664C38.8406 21.7197 35.8539 20.2397 34.8739 19.8397C34.2939 19.4997 28.8739 15.8664 25.3272 13.4731C24.9406 13.2197 24.4206 13.3197 24.1672 13.6997C23.9139 14.0864 24.0139 14.5997 24.3939 14.8597C33.8139 21.2131 34.1139 21.3331 34.2206 21.3731C34.9339 21.6597 37.3006 22.7931 37.6472 25.2931C37.8806 26.9931 37.5806 27.8064 37.2339 28.7397L37.2268 28.759C36.9018 29.6409 36.5341 30.6389 36.5672 32.3464C36.6215 35.3665 36.5395 44.6112 36.5233 46.4383V46.4384L36.5206 46.7531C36.5206 47.2131 36.8872 47.5931 37.3472 47.5931ZM25.3807 47.2661C25.4807 47.6394 25.814 47.8794 26.1807 47.8794L26.1873 47.8928C26.2607 47.8928 26.334 47.8794 26.4073 47.8594C26.8473 47.7328 27.1073 47.2794 26.9873 46.8328L26.9828 46.8156C26.8923 46.4773 25.5157 41.3302 25.574 37.5928C25.5873 36.6994 25.674 35.7994 25.7607 34.9328L25.7635 34.9032C25.9825 32.6342 26.1884 30.5003 24.9007 29.1594C24.2273 28.4528 18.9407 25.8194 16.7007 24.7194C16.2873 24.5128 15.7873 24.6861 15.5873 25.0994C15.3807 25.5128 15.554 26.0128 15.9673 26.2128C19.414 27.8994 23.254 29.8994 23.7007 30.3061C24.4607 31.0994 24.294 32.7994 24.1007 34.7661L24.0902 34.8746L24.0902 34.8746C24.0067 35.7411 23.9201 36.638 23.9073 37.5594C23.8425 41.5376 25.2432 46.7539 25.373 47.2372L25.3807 47.2661ZM37.2732 19.7326C36.8802 19.7322 36.5339 19.4589 36.454 19.0592C36.1273 17.4059 36.814 16.5059 37.1207 16.1926C37.1407 16.1792 37.5073 15.7859 37.2873 14.6526C37.2007 14.1992 37.494 13.7659 37.9473 13.6726C38.394 13.5792 38.834 13.8792 38.9273 14.3259C39.2873 16.1459 38.614 17.0592 38.3073 17.3659C38.2407 17.4326 37.9073 17.8192 38.0873 18.7392C38.174 19.1926 37.8807 19.6259 37.4273 19.7192C37.3759 19.7321 37.3246 19.7325 37.2732 19.7326ZM42.7406 26.1658C43.1532 26.4587 43.7253 26.6718 44.3639 26.6725L44.3606 26.6725H44.3672L44.3639 26.6725C44.8897 26.6719 45.4685 26.5317 46.0472 26.1658C46.4406 25.9258 46.5606 25.4125 46.3139 25.0192C46.0739 24.6258 45.5606 24.5125 45.1672 24.7525C44.4272 25.2125 43.8939 24.9458 43.7006 24.8058C43.3339 24.5392 42.0072 23.7658 40.5206 24.6925C40.1272 24.9325 40.0072 25.4458 40.2539 25.8392C40.4939 26.2325 41.0139 26.3525 41.4006 26.1058C41.9806 25.7458 42.4872 25.9925 42.7406 26.1658ZM40.3273 22.0526C40.274 22.0526 40.214 22.0526 40.1607 22.0326C39.7073 21.9392 39.4207 21.4992 39.514 21.0526C39.7673 19.7926 40.814 18.9326 42.314 18.7392C42.6673 18.6926 43.5007 18.4926 43.6873 17.5659C43.7807 17.1126 44.214 16.8192 44.6673 16.9126C45.1207 17.0059 45.4073 17.4459 45.3207 17.8926C44.994 19.5126 43.6607 20.2459 42.5273 20.3926C42.1673 20.4392 41.3073 20.6259 41.154 21.3859C41.074 21.7792 40.7273 22.0526 40.3407 22.0526H40.3273ZM32.3139 30.7261C32.4206 30.7795 32.5339 30.7995 32.6472 30.7995C32.9739 30.7995 33.2739 30.6128 33.4139 30.2995C33.6006 29.8795 33.4072 29.3861 32.9872 29.1995C32.9869 29.1993 32.9863 29.199 32.9851 29.1985C32.9313 29.1729 31.9066 28.6866 31.5539 27.7395C31.3939 27.3061 30.9072 27.0861 30.4806 27.2461C30.0472 27.4061 29.8272 27.8861 29.9872 28.3195C30.5736 29.8981 32.1376 30.6422 32.3019 30.7204C32.3076 30.7231 32.3117 30.725 32.3139 30.7261Z" fill="#4B6147"/>
</svg>
