<svg width="61" height="60" viewBox="0 0 61 60" fill="none" xmlns="http://www.w3.org/2000/svg">
<rect x="0.5" width="60" height="60" rx="30" fill="#EAD8C0"/>
<path d="M41.5841 45H19.4159C17.2587 45 15.5 43.1235 15.5 40.8154V19.1846C15.5 16.8765 17.2587 15 19.4159 15H41.5841C43.7413 15 45.5 16.8765 45.5 19.1846V40.8154C45.5 43.1235 43.7413 45 41.5841 45ZM19.4159 16.4683C18.0144 16.4683 16.874 17.687 16.874 19.1846V40.8154C16.874 42.313 18.0144 43.5317 19.4159 43.5317H41.5841C42.9856 43.5317 44.126 42.313 44.126 40.8154V19.1846C44.126 17.687 42.9856 16.4683 41.5841 16.4683H19.4159ZM35.7556 26.2617H25.2472C23.5104 26.2617 22.098 24.7523 22.098 22.8994V22.039C22.098 20.183 23.5104 18.6736 25.2472 18.6736H35.7556C37.4896 18.6736 38.902 20.183 38.902 22.039V22.8994C38.902 24.7523 37.4896 26.2617 35.7556 26.2617ZM25.2472 20.1449C24.2716 20.1449 23.472 20.9965 23.472 22.0419V22.9023C23.472 23.9448 24.2689 24.7964 25.2472 24.7964H35.7556C36.7311 24.7964 37.528 23.9448 37.528 22.9023V22.0419C37.528 20.9965 36.7339 20.1449 35.7556 20.1449H25.2472ZM31.1884 24.3001V22.2328C31.1884 21.9597 30.8806 21.7365 30.5014 21.7365C30.1221 21.7365 29.8144 21.9597 29.8144 22.2328V24.3001C29.8144 24.5732 30.1221 24.7964 30.5014 24.7964C30.8806 24.7964 31.1884 24.5732 31.1884 24.3001Z" fill="#4B6147"/>
</svg>
