<svg width="60" height="60" viewBox="0 0 60 60" fill="none" xmlns="http://www.w3.org/2000/svg">
<rect width="60" height="60" rx="30" fill="#EAD8C0"/>
<path fill-rule="evenodd" clip-rule="evenodd" d="M23.3584 17.1407C23.1084 16.995 22.8254 16.9154 22.5361 16.9092C22.4302 16.9202 22.3255 16.9409 22.2234 16.971C21.9724 17.0196 21.7362 17.1261 21.5335 17.282C21.3309 17.438 21.1674 17.639 21.0561 17.8692C20.9468 18.0857 20.8899 18.3248 20.8899 18.5674C20.8899 18.8099 20.9468 19.0491 21.0561 19.2656L21.2089 19.5783C21.7398 20.6983 22.7507 22.7783 24.8452 24.1783C25.2852 24.4765 25.6998 24.7056 26.0634 24.9056L26.3652 25.0728C26.8156 25.3276 27.1724 25.7201 27.3832 26.1927C27.5939 26.6653 27.6476 27.193 27.5361 27.6983C27.4658 28.0036 27.4304 28.3159 27.4307 28.6292C27.446 29.3329 27.4105 29.9559 27.3219 30.5071L27.4121 30.4402L27.9503 31.1675C28.0543 31.2956 28.1885 31.3959 28.3408 31.4594C28.4931 31.5229 28.6589 31.5475 28.8231 31.5311C28.9792 31.5264 29.1319 31.4839 29.2681 31.4072C29.4042 31.3306 29.5198 31.2221 29.6049 31.0911C29.8103 30.7465 30.0984 30.4586 30.4432 30.2535C30.788 30.0484 31.1786 29.9326 31.5794 29.9166C31.9865 29.89 32.3937 29.9652 32.7644 30.1354C33.1352 30.3055 33.4577 30.5652 33.7031 30.8911L33.9031 31.1638C34.0059 31.2914 34.1388 31.3914 34.2899 31.4549C34.441 31.5183 34.6054 31.5433 34.7685 31.5275C34.927 31.5264 35.0828 31.486 35.2218 31.4098C35.3608 31.3337 35.4787 31.2241 35.5649 31.0911C35.777 30.7444 36.0707 30.4549 36.4203 30.2477C36.77 30.0406 37.1651 29.9222 37.5711 29.9028C37.977 29.8835 38.3816 29.9637 38.7494 30.1366C39.1172 30.3095 39.4371 30.5698 39.6812 30.8947L39.8631 31.1493C39.9639 31.2785 40.0948 31.3812 40.2444 31.4484C40.3939 31.5155 40.5576 31.5452 40.7212 31.5347C40.8815 31.5331 41.0388 31.4918 41.179 31.4143C41.3193 31.3369 41.4381 31.2258 41.5249 31.0911L42.2194 29.9384L42.2833 29.9781C42.4144 28.4472 42.2164 26.9033 41.6998 25.451C40.9252 23.4619 38.627 21.3492 35.8816 21.3492H35.8161C34.3205 21.3984 32.8481 21.7329 31.478 22.3347C30.924 22.5721 30.3279 22.6957 29.7252 22.6983C29.2705 22.6997 28.8189 22.6222 28.3907 22.4692C26.4343 21.7928 24.8634 20.1056 23.9652 17.7419C23.8172 17.4933 23.6084 17.2864 23.3584 17.1407ZM41.6505 32.8041C41.3719 32.9225 41.0728 32.9881 40.7685 32.9966H40.674C40.2868 33.0013 39.9041 32.9138 39.5576 32.7411C39.211 32.5685 38.9106 32.3157 38.6812 32.0038L38.4994 31.7493C38.3987 31.618 38.2668 31.514 38.1156 31.4467C37.9645 31.3793 37.7989 31.3509 37.634 31.3638C37.4732 31.3662 37.3155 31.4091 37.1757 31.4886C37.0359 31.568 36.9183 31.6815 36.834 31.8184C36.628 32.1673 36.3375 32.4588 35.9892 32.666C35.641 32.8731 35.2462 32.9893 34.8412 33.0038C34.4358 33.0298 34.0303 32.9543 33.6614 32.7841C33.2926 32.614 32.9719 32.3545 32.7285 32.0293L32.5431 31.7456C32.4399 31.6175 32.3063 31.5172 32.1546 31.4537C32.0028 31.3902 31.8376 31.3656 31.674 31.382C31.5131 31.3813 31.3547 31.4208 31.213 31.4971C31.0714 31.5733 30.9511 31.6837 30.8631 31.8184C30.6596 32.1605 30.3743 32.4466 30.0328 32.651C29.6913 32.8554 29.3043 32.9716 28.9067 32.9893C28.5013 33.0175 28.0952 32.945 27.7246 32.7781C27.3758 32.621 27.0687 32.385 26.8274 32.089C26.6709 32.3899 26.4832 32.656 26.2634 32.891L26.2452 32.9092C25.7178 33.4137 25.0495 33.746 24.3289 33.8619H24.3034C24.1084 33.9182 23.9166 33.985 23.7289 34.0619C23.2463 34.2521 22.7534 34.4148 22.2525 34.5492C19.6961 35.2183 18.2961 39.0328 17.6889 41.2292C17.6342 41.4334 17.6222 41.6468 17.6539 41.8558C17.6855 42.0649 17.76 42.2651 17.8726 42.444C17.9853 42.623 18.1337 42.7767 18.3086 42.8955C18.4835 43.0143 18.681 43.0958 18.8889 43.1347C18.9824 43.1521 19.0774 43.1607 19.1725 43.1601C19.515 43.161 19.8478 43.0467 20.1175 42.8357C20.3873 42.6247 20.5782 42.3291 20.6598 41.9965C20.9616 40.7201 21.3543 39.4183 22.4161 38.7783L22.4961 38.7274C22.8843 38.4462 23.3479 38.2878 23.8271 38.2728C24.2199 38.2761 24.6017 38.4034 24.918 38.6365L24.9761 38.6728L24.9825 38.6768C25.9856 39.3092 27.3584 40.1747 29.3071 40.2074H29.6707C31.3652 40.2074 37.1325 39.8619 40.2525 35.4074C40.8381 34.6051 41.3076 33.7286 41.6505 32.8041ZM21.9507 15.5128C22.1434 15.4739 22.3395 15.4544 22.5361 15.4547C23.0976 15.4617 23.647 15.6185 24.1277 15.9087C24.6084 16.1989 25.0029 16.612 25.2707 17.1056C25.2763 17.1148 25.289 17.1478 25.3093 17.2008C25.5126 17.7312 26.4845 20.2659 28.878 21.1056C29.1499 21.2026 29.4365 21.2518 29.7252 21.251C30.1308 21.2474 30.5315 21.1621 30.9034 21.0001C32.4464 20.3203 34.1055 19.9426 35.7907 19.8874H35.867C39.2743 19.8874 42.0634 22.4074 43.0307 24.9237C43.7019 26.7963 43.9082 28.8038 43.6321 30.7737C43.3559 32.7437 42.6054 34.617 41.4452 36.2328C37.918 41.2692 31.5289 41.6547 29.6707 41.6547H29.2743C26.8926 41.6192 25.2107 40.5512 24.1611 39.8846C24.1355 39.8683 24.1102 39.8523 24.0852 39.8365C24.0079 39.7775 23.9134 39.7456 23.8161 39.7456C23.581 39.7862 23.3598 39.885 23.1725 40.0328C22.6598 40.3492 22.3652 41.1601 22.0816 42.3492C21.9226 43.0004 21.5493 43.5792 21.0217 43.9927C20.4941 44.4062 19.8428 44.6304 19.1725 44.6292C18.9871 44.6301 18.8019 44.6131 18.6198 44.5783C18.2147 44.5023 17.8297 44.3433 17.489 44.1113C17.1483 43.8794 16.8593 43.5795 16.64 43.2305C16.4208 42.8815 16.2761 42.4909 16.215 42.0833C16.154 41.6757 16.1779 41.2599 16.2852 40.8619C17.0852 37.9528 18.7252 33.9674 21.8925 33.1419C22.4337 33.0006 22.8639 32.8368 23.2254 32.6991C23.5148 32.5889 23.7603 32.4955 23.9834 32.4437C24.6016 32.291 24.8598 32.2256 25.2234 31.8619C25.7652 31.2837 26.0343 30.2765 25.998 28.611C25.9975 28.179 26.0463 27.7483 26.1434 27.3274C26.1869 27.1286 26.1651 26.9211 26.0812 26.7357C25.9974 26.5503 25.856 26.3969 25.678 26.2983C25.5876 26.2475 25.4924 26.1951 25.3927 26.1402C25.0069 25.9277 24.5547 25.6786 24.0634 25.3492C21.6565 23.7413 20.5251 21.4231 19.928 20.1995C19.8702 20.081 19.8174 19.9728 19.7689 19.8765C19.5637 19.4522 19.4586 18.9865 19.4617 18.5152C19.4649 18.044 19.5761 17.5797 19.7868 17.1582C19.9976 16.7367 20.3023 16.3691 20.6774 16.0839C21.0526 15.7986 21.4882 15.6033 21.9507 15.5128Z" fill="#4B6147"/>
</svg>
