<svg width="60" height="60" viewBox="0 0 60 60" fill="none" xmlns="http://www.w3.org/2000/svg">
<rect width="60" height="60" rx="30" fill="#EAD8C0"/>
<path fill-rule="evenodd" clip-rule="evenodd" d="M13.0508 19.7498C12.6091 19.7498 12.251 20.1078 12.251 20.5495C12.251 20.9912 12.6091 21.3492 13.0508 21.3492H46.7026C47.1442 21.3492 47.5023 20.9912 47.5023 20.5495C47.5023 20.1078 47.1442 19.7498 46.7026 19.7498H13.0508ZM13.1898 23.4271C12.7549 23.3504 12.34 23.6408 12.2633 24.0757C12.1865 24.5107 12.4769 24.9255 12.9119 25.0023C13.4034 25.089 14.0463 25.2496 14.5524 25.589C15.0165 25.9002 15.3663 26.355 15.3663 27.1466C15.3663 28.5053 15.949 29.4266 16.694 29.9853C17.3987 30.5139 18.2138 30.695 18.7314 30.695C19.1993 30.695 20.0891 30.5745 20.8909 30.082C21.7429 29.5586 22.4631 28.6267 22.4631 27.1466C22.4631 26.2466 22.829 25.7942 23.2085 25.5396C23.6385 25.2509 24.1461 25.1826 24.3622 25.1961C24.6297 25.2128 25.1658 25.3219 25.6103 25.6253C26.0134 25.9005 26.361 26.3411 26.361 27.1466C26.361 28.5374 27.0186 29.4587 27.805 30.0031C28.5492 30.5184 29.3994 30.695 29.9094 30.695C31.2843 30.695 33.4057 29.7712 33.6378 27.219C33.7291 26.2142 34.0687 25.6941 34.3984 25.4162C34.7413 25.1272 35.1756 25.0144 35.59 25.0144C35.9826 25.0144 36.4801 25.15 36.8646 25.4704C37.2219 25.7682 37.5389 26.271 37.5389 27.1466C37.5389 28.5003 38.1164 29.4589 38.8698 30.0617C39.5905 30.6382 40.4557 30.8783 41.0873 30.8783C41.7512 30.8783 42.6157 30.5803 43.3168 29.997C44.0473 29.3892 44.6357 28.4407 44.6357 27.1466C44.6357 26.6343 44.7413 26.2672 44.891 26.001C45.0405 25.7353 45.2416 25.5562 45.4544 25.4315C45.9284 25.1536 46.5032 25.1239 46.7943 25.1821C47.2274 25.2688 47.6488 24.9879 47.7354 24.5548C47.822 24.1217 47.5411 23.7004 47.108 23.6137C46.4831 23.4888 45.5002 23.5506 44.6456 24.0516C43.7277 24.5896 43.0363 25.5903 43.0363 27.1466C43.0363 27.9051 42.7083 28.4226 42.2938 28.7674C41.8497 29.1369 41.3398 29.2788 41.0873 29.2788C40.8028 29.2788 40.2937 29.1524 39.869 28.8127C39.4772 28.4993 39.1384 27.992 39.1384 27.1466C39.1384 25.8234 38.6309 24.8603 37.8886 24.2417C37.1736 23.6458 36.2967 23.415 35.59 23.415C34.9052 23.415 34.0712 23.6001 33.3676 24.1932C32.6507 24.7975 32.1658 25.7434 32.0449 27.0742C31.9101 28.5569 30.7292 29.0956 29.9094 29.0956C29.6864 29.0956 29.1623 28.9974 28.7154 28.688C28.311 28.4081 27.9604 27.9551 27.9604 27.1466C27.9604 25.7528 27.2999 24.8421 26.5122 24.3044C25.7655 23.7946 24.9273 23.6288 24.4619 23.5998C23.9452 23.5675 23.0783 23.7006 22.3172 24.2115C21.5056 24.7562 20.8636 25.701 20.8636 27.1466C20.8636 27.5884 20.7647 27.9135 20.62 28.1584C20.4748 28.4041 20.2753 28.583 20.0537 28.7191C19.5726 29.0146 18.9965 29.0956 18.7314 29.0956C18.5163 29.0956 18.0486 29.0019 17.6537 28.7058C17.2993 28.44 16.9657 27.9869 16.9657 27.1466C16.9657 25.7388 16.2766 24.8194 15.4432 24.2606C14.6515 23.7296 13.7369 23.5237 13.1898 23.4271ZM16.1674 34.5433C16.8115 34.5433 17.3336 34.0212 17.3336 33.3771C17.3336 32.733 16.8115 32.2109 16.1674 32.2109C15.5233 32.2109 15.0012 32.733 15.0012 33.3771C15.0012 34.0212 15.5233 34.5433 16.1674 34.5433ZM30.0917 34.5433C30.7358 34.5433 31.2579 34.0212 31.2579 33.3771C31.2579 32.733 30.7358 32.2109 30.0917 32.2109C29.4476 32.2109 28.9254 32.733 28.9254 33.3771C28.9254 34.0212 29.4476 34.5433 30.0917 34.5433ZM44.0186 34.5433C44.6627 34.5433 45.1848 34.0212 45.1848 33.3771C45.1848 32.733 44.6627 32.2109 44.0186 32.2109C43.3745 32.2109 42.8523 32.733 42.8523 33.3771C42.8523 34.0212 43.3745 34.5433 44.0186 34.5433ZM23.1295 38.5752C23.7736 38.5752 24.2958 38.0531 24.2958 37.409C24.2958 36.7649 23.7736 36.2428 23.1295 36.2428C22.4854 36.2428 21.9633 36.7649 21.9633 37.409C21.9633 38.0531 22.4854 38.5752 23.1295 38.5752ZM37.0538 38.5752C37.6979 38.5752 38.22 38.0531 38.22 37.409C38.22 36.7649 37.6979 36.2428 37.0538 36.2428C36.4097 36.2428 35.8876 36.7649 35.8876 37.409C35.8876 38.0531 36.4097 38.5752 37.0538 38.5752ZM12.9228 20.0147C12.9638 20.0049 13.0067 19.9998 13.0508 19.9998H46.7026C47.0062 19.9998 47.2523 20.2459 47.2523 20.5495C47.2523 20.8094 47.0719 21.0272 46.8295 21.0845C47.0714 21.0268 47.2513 20.8093 47.2513 20.5497C47.2513 20.2461 47.0052 20 46.7015 20H13.0497C13.006 20 12.9635 20.0051 12.9228 20.0147ZM12.9244 23.6796C12.9951 23.6628 13.0703 23.6599 13.1464 23.6733C13.6847 23.7683 14.5568 23.9672 15.304 24.4682C16.0799 24.9885 16.7157 25.8353 16.7157 27.1466C16.7157 28.0679 17.0882 28.5942 17.5037 28.9058C17.9469 29.2382 18.4689 29.3456 18.7314 29.3456C18.8786 29.3456 19.1064 29.3241 19.3635 29.2628C19.106 29.3243 18.8778 29.3458 18.7304 29.3458C18.4679 29.3458 17.9459 29.2384 17.5027 28.906C17.0872 28.5944 16.7147 28.0681 16.7147 27.1469C16.7147 25.8355 16.0788 24.9887 15.303 24.4684C14.5558 23.9674 13.6836 23.7686 13.1454 23.6736C13.0696 23.6602 12.9948 23.663 12.9244 23.6796ZM19.6227 30.3312C19.9826 30.2451 20.3826 30.1008 20.76 29.8689C21.5463 29.386 22.2131 28.5305 22.2131 27.1466C22.2131 26.1614 22.6221 25.632 23.0692 25.332C23.3155 25.1667 23.5833 25.0653 23.8213 25.008C23.583 25.0653 23.3149 25.1667 23.0682 25.3322C22.6211 25.6323 22.2121 26.1616 22.2121 27.1469C22.2121 28.5308 21.5453 29.3862 20.759 29.8692C20.3819 30.1008 19.9824 30.245 19.6227 30.3312ZM23.5694 23.9378C23.9084 23.8568 24.2177 23.835 24.4463 23.8493C24.8808 23.8764 25.6718 24.0334 26.3712 24.5108C27.0989 25.0077 27.7104 25.8449 27.7104 27.1466C27.7104 28.0459 28.1088 28.5722 28.5731 28.8936C29.0664 29.2351 29.6415 29.3456 29.9094 29.3456C30.0727 29.3456 30.2495 29.3262 30.4305 29.2848C30.2491 29.3263 30.072 29.3458 29.9084 29.3458C29.6405 29.3458 29.0654 29.2354 28.5721 28.8938C28.1078 28.5724 27.7094 28.0462 27.7094 27.1469C27.7094 25.8451 27.0979 25.0079 26.3702 24.5111C25.6708 24.0336 24.8798 23.8767 24.4453 23.8495C24.2169 23.8352 23.908 23.857 23.5694 23.9378ZM34.7801 23.7594C35.0595 23.6925 35.3343 23.6652 35.589 23.6652C36.2466 23.6652 37.0642 23.8812 37.7275 24.434C38.4096 25.0024 38.8874 25.8936 38.8874 27.1469C38.8874 28.0716 39.2635 28.6495 39.7118 29.0082C40.1827 29.3849 40.7475 29.529 41.0863 29.529C41.1792 29.529 41.2935 29.5147 41.4209 29.4843C41.2939 29.5146 41.18 29.5288 41.0873 29.5288C40.7485 29.5288 40.1838 29.3846 39.7128 29.0079C39.2645 28.6492 38.8884 28.0714 38.8884 27.1466C38.8884 25.8933 38.4106 25.0021 37.7286 24.4337C37.0652 23.881 36.2477 23.665 35.59 23.665C35.335 23.665 35.0598 23.6923 34.7801 23.7594ZM45.6738 23.9078C46.1944 23.7828 46.6955 23.7866 47.058 23.8591C47.3557 23.9187 47.5488 24.2083 47.4892 24.506C47.4458 24.7233 47.2797 24.8848 47.0775 24.9331C47.2802 24.8851 47.4467 24.7234 47.4902 24.5058C47.5498 24.208 47.3567 23.9184 47.059 23.8589C46.6963 23.7863 46.1948 23.7825 45.6738 23.9078ZM45.9345 24.976C45.731 25.0246 45.522 25.1017 45.327 25.216C44.837 25.5033 44.3847 26.0522 44.3847 27.1469C44.3847 28.3571 43.8371 29.2382 43.1558 29.805C42.6951 30.1883 42.1625 30.4374 41.679 30.5531C42.1628 30.4375 42.6958 30.1884 43.1569 29.8048C43.8381 29.238 44.3857 28.3569 44.3857 27.1466C44.3857 26.052 44.838 25.503 45.328 25.2158C45.5227 25.1017 45.7313 25.0246 45.9345 24.976ZM35.0386 24.8279C34.7561 24.8956 34.4788 25.0214 34.2373 25.225C33.8472 25.5538 33.4848 26.1405 33.3888 27.1964C33.2129 29.1309 31.8802 30.0652 30.6947 30.3486C31.88 30.0649 33.212 29.1306 33.3878 27.1966C33.4838 26.1407 33.8462 25.5541 34.2363 25.2253C34.4781 25.0214 34.7557 24.8955 35.0386 24.8279ZM16.3821 34.268C16.7845 34.1714 17.0836 33.8092 17.0836 33.3771C17.0836 32.8711 16.6734 32.4609 16.1674 32.4609C16.0931 32.4609 16.0208 32.4697 15.9517 32.4864C16.0205 32.4699 16.0924 32.4611 16.1664 32.4611C16.6724 32.4611 17.0826 32.8713 17.0826 33.3773C17.0826 33.8091 16.784 34.171 16.3821 34.268ZM29.8759 32.4864C29.9448 32.4699 30.0167 32.4611 30.0907 32.4611C30.5967 32.4611 31.0069 32.8713 31.0069 33.3773C31.0069 33.8091 30.7083 34.171 30.3064 34.268C30.7088 34.1714 31.0079 33.8092 31.0079 33.3771C31.0079 32.8711 30.5977 32.4609 30.0917 32.4609C30.0174 32.4609 29.9451 32.4697 29.8759 32.4864ZM44.2333 34.268C44.6357 34.1714 44.9348 33.8092 44.9348 33.3771C44.9348 32.8711 44.5246 32.4609 44.0186 32.4609C43.9443 32.4609 43.872 32.4697 43.8029 32.4864C43.8717 32.4699 43.9436 32.4611 44.0176 32.4611C44.5236 32.4611 44.9338 32.8713 44.9338 33.3773C44.9338 33.8091 44.6352 34.171 44.2333 34.268ZM22.9138 36.5183C22.9827 36.5018 23.0546 36.493 23.1285 36.493C23.6345 36.493 24.0447 36.9032 24.0447 37.4092C24.0447 37.8409 23.7462 38.2029 23.3442 38.2999C23.7467 38.2033 24.0458 37.8411 24.0458 37.409C24.0458 36.903 23.6355 36.4928 23.1295 36.4928C23.0552 36.4928 22.983 36.5016 22.9138 36.5183ZM37.2685 38.2999C37.6709 38.2033 37.97 37.8411 37.97 37.409C37.97 36.903 37.5598 36.4928 37.0538 36.4928C36.9795 36.4928 36.9073 36.5016 36.8381 36.5183C36.907 36.5018 36.9788 36.493 37.0528 36.493C37.5588 36.493 37.969 36.9032 37.969 37.4092C37.969 37.8409 37.6704 38.2029 37.2685 38.2999Z" fill="#4B6147"/>
</svg>
