<svg width="60" height="60" viewBox="0 0 60 60" fill="none" xmlns="http://www.w3.org/2000/svg">
<rect width="60" height="60" rx="30" fill="#EAD8C0"/>
<path d="M33.7913 41.8401C32.7744 41.8416 31.7808 41.5362 30.9404 40.9638C30.6158 40.7419 30.2317 40.6232 29.8385 40.6232C29.4454 40.6232 29.0613 40.7419 28.7367 40.9638C28.0217 41.4512 27.1935 41.747 26.3314 41.8226C25.4694 41.8983 24.6023 41.7514 23.8133 41.3959C23.0243 41.0405 22.3398 40.4884 21.8253 39.7926C21.3108 39.0968 20.9835 38.2805 20.8749 37.422C20.7743 36.6426 20.8578 35.8505 21.1185 35.1092C21.6131 33.702 21.2349 31.7965 19.7476 31.0438C18.4229 30.3573 17.3696 29.2425 16.7594 27.8809C16.1493 26.5193 16.0182 24.9912 16.3876 23.5456C16.984 21.0401 19.1913 18.3638 23.6058 18.3638C25.4268 18.3619 27.1866 19.0209 28.5585 20.2183C28.914 20.532 29.3718 20.7051 29.8458 20.7051C30.3199 20.7051 30.7776 20.532 31.1331 20.2183C32.5019 19.0253 34.2555 18.3667 36.0713 18.3638C40.4858 18.3638 42.6967 21.0401 43.2931 23.5456C43.6611 24.9912 43.5295 26.5188 42.9195 27.8801C42.3094 29.2414 41.257 30.3563 39.9331 31.0438V31.0438C38.4458 31.7965 38.0676 33.702 38.5622 35.1092C38.8119 35.8273 38.897 36.5923 38.811 37.3477C38.725 38.1031 38.4703 38.8294 38.0655 39.473C37.6608 40.1166 37.1165 40.6609 36.4729 41.0656C35.8294 41.4703 35.103 41.7251 34.3476 41.811C34.1622 41.8292 33.9767 41.8401 33.7913 41.8401ZM29.8385 39.1674C30.5242 39.1667 31.1939 39.3747 31.7585 39.7638C32.3863 40.189 33.1321 40.4056 33.89 40.3828C34.6479 40.36 35.3793 40.099 35.9804 39.6368C36.5815 39.1746 37.0217 38.5348 37.2384 37.8082C37.4551 37.0816 37.4373 36.3052 37.1876 35.5892C36.3876 33.3092 37.304 30.742 39.2749 29.7456C40.3062 29.2052 41.1246 28.332 41.5972 27.268C42.0699 26.2039 42.169 25.0113 41.8785 23.8838C41.6495 22.931 40.5585 19.8183 36.0713 19.8183C34.601 19.8158 33.1797 20.3469 32.0713 21.3129C31.4526 21.8614 30.6545 22.1643 29.8276 22.1643C29.0008 22.1643 28.2027 21.8614 27.584 21.3129C26.4819 20.3507 25.0688 19.8198 23.6058 19.8183C19.104 19.8183 18.0131 22.931 17.8022 23.8838C17.5101 25.0109 17.6081 26.2037 18.0801 27.268C18.5522 28.3323 19.3706 29.2056 20.4022 29.7456C22.3767 30.7274 23.2895 33.3092 22.4931 35.5892C22.3044 36.1191 22.2445 36.6862 22.3185 37.2438C22.4236 38.0429 22.7927 38.784 23.3672 39.3494C23.9417 39.9147 24.6887 40.2717 25.4895 40.3638C26.345 40.4626 27.2074 40.2496 27.9185 39.7638C28.4832 39.3747 29.1529 39.1667 29.8385 39.1674V39.1674Z" fill="#4B6147"/>
<path d="M32.1078 37.382C31.9149 37.382 31.7299 37.3054 31.5936 37.169C31.4572 37.0326 31.3805 36.8476 31.3805 36.6547V24.5456C31.3805 24.3527 31.4572 24.1678 31.5936 24.0314C31.7299 23.895 31.9149 23.8184 32.1078 23.8184C32.3007 23.8184 32.4857 23.895 32.6221 24.0314C32.7585 24.1678 32.8351 24.3527 32.8351 24.5456V36.6547C32.8351 36.8476 32.7585 37.0326 32.6221 37.169C32.4857 37.3054 32.3007 37.382 32.1078 37.382Z" fill="#4B6147"/>
<path d="M27.7589 37.382C27.566 37.382 27.381 37.3054 27.2446 37.169C27.1082 37.0326 27.0316 36.8476 27.0316 36.6547V24.5456C27.0316 24.4501 27.0504 24.3556 27.0869 24.2673C27.1235 24.1791 27.1771 24.0989 27.2446 24.0314C27.3121 23.9638 27.3923 23.9103 27.4805 23.8737C27.5688 23.8372 27.6633 23.8184 27.7589 23.8184C27.8544 23.8184 27.9489 23.8372 28.0372 23.8737C28.1254 23.9103 28.2056 23.9638 28.2731 24.0314C28.3406 24.0989 28.3942 24.1791 28.4308 24.2673C28.4673 24.3556 28.4861 24.4501 28.4861 24.5456V36.6547C28.4861 36.8476 28.4095 37.0326 28.2731 37.169C28.1367 37.3054 27.9517 37.382 27.7589 37.382V37.382Z" fill="#4B6147"/>
</svg>
