<svg width="60" height="60" viewBox="0 0 60 60" fill="none" xmlns="http://www.w3.org/2000/svg">
<rect width="60" height="60" rx="30" fill="#EAD8C0"/>
<path fill-rule="evenodd" clip-rule="evenodd" d="M30 46C34.1485 46 37.9282 44.4212 40.7711 41.8316L34.4715 35.5308C34.1786 35.2378 34.1786 34.763 34.4715 34.4701C34.7645 34.1772 35.2393 34.1773 35.5322 34.4702L41.8318 40.7709C44.4212 37.928 46 34.1484 46 30C46 21.1634 38.8366 14 30 14C25.8516 14 22.0719 15.5788 19.229 18.1683L25.5322 24.4714C25.8251 24.7643 25.8251 25.2391 25.5322 25.532C25.2393 25.8249 24.7644 25.8249 24.4715 25.532L18.1684 19.2289C15.5788 22.0718 14 25.8515 14 30C14 38.8366 21.1634 46 30 46ZM30 47.5C39.665 47.5 47.5 39.665 47.5 30C47.5 20.335 39.665 12.5 30 12.5C20.335 12.5 12.5 20.335 12.5 30C12.5 39.665 20.335 47.5 30 47.5ZM36.3798 21.0971C36.3012 21.1192 36.2217 21.1799 36.1753 21.2463L36.1609 21.2668L36.1605 21.2665L34.5319 23.405C34.5675 23.4279 34.6024 23.4508 34.6367 23.4736C34.6489 23.481 34.661 23.4888 34.6729 23.4971L34.7005 23.5166C34.7294 23.5363 34.7578 23.5559 34.7858 23.5755C34.8045 23.5886 34.8223 23.6026 34.8392 23.6173C34.916 23.6746 34.9947 23.7358 35.0743 23.8012L36.7236 21.6355C36.727 21.6281 36.7358 21.6084 36.745 21.575C36.7593 21.5236 36.7678 21.4635 36.7659 21.405C36.764 21.3473 36.7525 21.3014 36.7356 21.2664C36.7205 21.2349 36.6954 21.1996 36.644 21.1636C36.5732 21.1141 36.5196 21.0971 36.4843 21.0911C36.4485 21.085 36.4145 21.0873 36.3798 21.0971ZM33.2024 24.1193C33.1859 24.1067 33.1702 24.0934 33.1553 24.0796C32.6685 23.8706 32.1259 23.7513 31.5381 23.8227C30.6713 23.928 29.5697 24.4664 28.3128 26.0471L30.8196 27.8024C31.1024 28.0004 31.1711 28.3901 30.9731 28.6729C30.7751 28.9556 30.3854 29.0244 30.1026 28.8264L27.5816 27.0611C26.919 28.0614 26.324 29.1723 25.7959 30.3202L26.9716 31.1434C27.2543 31.3414 27.3231 31.7311 27.1251 32.0139C26.9271 32.2966 26.5374 32.3654 26.2546 32.1674L25.2853 31.4887C24.6995 32.9001 24.2115 34.3293 23.8201 35.6449L24.2701 35.96C24.5529 36.158 24.6216 36.5477 24.4236 36.8305C24.2256 37.1132 23.8359 37.1819 23.5531 36.9839L23.4605 36.9191C23.1223 38.1859 22.8868 39.2844 22.7527 40.0692C22.7505 40.0817 22.748 40.0942 22.7451 40.1066C22.7394 40.1309 22.7306 40.2196 22.7569 40.3185C22.7801 40.4055 22.8242 40.4808 22.9076 40.5392L22.9216 40.5492C22.9575 40.5722 22.9797 40.5777 22.989 40.5794C23.0004 40.5816 23.0144 40.582 23.0357 40.5775C23.0915 40.5657 23.156 40.5315 23.2568 40.4656C23.2674 40.4586 23.2783 40.452 23.2894 40.4457C24.6655 39.6608 27.0713 38.0742 29.4274 36.0666L28.8419 35.6566C28.5592 35.4586 28.4905 35.0689 28.6884 34.7862C28.8864 34.5034 29.2761 34.4347 29.5589 34.6327L30.3927 35.2165C30.9739 34.6869 31.5427 34.1342 32.0822 33.5644L29.9918 32.1007C29.7091 31.9027 29.6404 31.513 29.8383 31.2303C30.0363 30.9475 30.426 30.8788 30.7088 31.0768L32.9261 32.6293C33.3586 32.1249 33.7627 31.6102 34.1277 31.089C35.577 29.0191 35.7451 27.5792 35.5104 26.6095C35.2756 25.6391 34.6 24.9784 33.9877 24.5435C33.8302 24.4366 33.6636 24.3337 33.4887 24.2403C33.3878 24.2253 33.2892 24.1854 33.2024 24.1193ZM35.1595 20.5178L34.162 21.8276L33.7897 19.9776C33.7308 19.6538 33.5587 19.2967 33.2532 19.0339C32.926 18.7523 32.476 18.6069 31.9533 18.699C31.3795 18.8002 31.027 19.1688 30.8428 19.5323C30.6729 19.8676 30.6163 20.2528 30.6664 20.537L30.6725 20.5717L30.6735 20.5715L31.1542 22.6168C29.8071 22.858 28.3834 23.7894 26.9392 25.7915C26.9294 25.8035 26.9201 25.8158 26.9111 25.8287C26.9049 25.8374 26.899 25.8463 26.8934 25.8553C26.867 25.8923 26.8406 25.9296 26.8142 25.9673C23.7154 30.3929 22.0015 37.0566 21.5232 39.8434C21.4411 40.2271 21.4653 41.0344 22.1628 41.5432C22.1717 41.5502 22.1809 41.557 22.1903 41.5636C22.5685 41.8284 22.9589 41.8715 23.2949 41.8003C23.5856 41.7387 23.813 41.5952 23.9252 41.522C25.9615 40.3582 30.2064 37.4881 33.3636 34.0209C33.4402 33.9767 33.5087 33.9154 33.5628 33.8381C33.5865 33.8043 33.6064 33.7688 33.6226 33.7324C34.1763 33.1063 34.6923 32.462 35.1516 31.806C36.5615 29.7925 36.9858 28.1346 36.8114 26.7816L39.1552 26.5115C39.1675 26.5101 39.1799 26.5083 39.1922 26.5061C39.4763 26.456 39.8189 26.2711 40.0759 25.9967C40.3545 25.6993 40.5803 25.242 40.4791 24.6682C40.3869 24.1456 40.0963 23.7724 39.7199 23.5612C39.3704 23.3652 38.9785 23.3249 38.6551 23.3789L36.7731 23.6337L37.7358 22.3695L37.7362 22.3698L37.7505 22.3493C37.916 22.113 38.0275 21.74 38.0152 21.3642C38.0019 20.9569 37.8382 20.4739 37.3609 20.1397C36.9262 19.8353 36.4568 19.7769 36.0413 19.8938C35.6556 20.0023 35.35 20.2509 35.1595 20.5178ZM32.563 20.2178L33.0671 22.7225C32.8643 22.664 32.6522 22.6179 32.4316 22.5884L31.8988 20.3216C31.8989 20.3121 31.8997 20.2914 31.9049 20.2602C31.9137 20.2076 31.9314 20.1495 31.9578 20.0972C31.9839 20.0458 32.0138 20.009 32.0439 19.9844C32.0709 19.9623 32.1086 19.9409 32.1704 19.93C32.2555 19.915 32.3112 19.9223 32.3458 19.9317C32.3807 19.9413 32.4106 19.9578 32.4379 19.9814C32.4998 20.0346 32.5462 20.1233 32.5602 20.203L32.5628 20.2178L32.563 20.2178ZM36.1464 24.9799C36.2638 25.1603 36.372 25.3544 36.4665 25.5631L38.9735 25.2742C38.9826 25.2707 39.0016 25.2629 39.0286 25.2476C39.0751 25.2213 39.1236 25.1849 39.1637 25.1422C39.2031 25.1 39.2274 25.0594 39.2402 25.0227C39.2518 24.9898 39.259 24.9471 39.2481 24.8853C39.2331 24.8002 39.2072 24.7503 39.1865 24.721C39.1655 24.6914 39.1398 24.6691 39.1083 24.6514C39.0371 24.6114 38.938 24.5982 38.8582 24.6123L38.8336 24.6166L38.8335 24.6161L36.1464 24.9799Z" fill="#4B6147"/>
</svg>
