<svg width="61" height="60" viewBox="0 0 61 60" fill="none" xmlns="http://www.w3.org/2000/svg">
<rect x="0.5" width="60" height="60" rx="30" fill="#EAD8C0"/>
<path fill-rule="evenodd" clip-rule="evenodd" d="M13.5508 19.7498C13.1091 19.7498 12.751 20.1078 12.751 20.5495C12.751 20.9912 13.1091 21.3492 13.5508 21.3492H47.2026C47.6442 21.3492 48.0023 20.9912 48.0023 20.5495C48.0023 20.1078 47.6442 19.7498 47.2026 19.7498H13.5508ZM13.6898 23.4271C13.2549 23.3504 12.84 23.6408 12.7633 24.0757C12.6865 24.5107 12.9769 24.9255 13.4119 25.0023C13.9034 25.089 14.5463 25.2496 15.0524 25.589C15.5165 25.9002 15.8663 26.355 15.8663 27.1466C15.8663 28.5053 16.449 29.4266 17.194 29.9853C17.8987 30.5139 18.7138 30.695 19.2314 30.695C19.6993 30.695 20.5891 30.5745 21.3909 30.082C22.2429 29.5586 22.9631 28.6267 22.9631 27.1466C22.9631 26.2466 23.329 25.7942 23.7085 25.5396C24.1385 25.2509 24.6461 25.1826 24.8622 25.1961C25.1297 25.2128 25.6658 25.3219 26.1103 25.6253C26.5134 25.9005 26.861 26.3411 26.861 27.1466C26.861 28.5374 27.5186 29.4587 28.305 30.0031C29.0492 30.5184 29.8994 30.695 30.4094 30.695C31.7843 30.695 33.9057 29.7712 34.1378 27.219C34.2291 26.2142 34.5687 25.6941 34.8984 25.4162C35.2413 25.1272 35.6756 25.0144 36.09 25.0144C36.4826 25.0144 36.9801 25.15 37.3646 25.4704C37.7219 25.7682 38.0389 26.271 38.0389 27.1466C38.0389 28.5003 38.6164 29.4589 39.3698 30.0617C40.0905 30.6382 40.9557 30.8783 41.5873 30.8783C42.2512 30.8783 43.1157 30.5803 43.8168 29.997C44.5473 29.3892 45.1357 28.4407 45.1357 27.1466C45.1357 26.6343 45.2413 26.2672 45.391 26.001C45.5405 25.7353 45.7416 25.5562 45.9544 25.4315C46.4284 25.1536 47.0032 25.1239 47.2943 25.1821C47.7274 25.2688 48.1488 24.9879 48.2354 24.5548C48.322 24.1217 48.0411 23.7004 47.608 23.6137C46.9831 23.4888 46.0002 23.5506 45.1456 24.0516C44.2277 24.5896 43.5363 25.5903 43.5363 27.1466C43.5363 27.9051 43.2083 28.4226 42.7938 28.7674C42.3497 29.1369 41.8398 29.2788 41.5873 29.2788C41.3028 29.2788 40.7937 29.1524 40.369 28.8127C39.9772 28.4993 39.6384 27.992 39.6384 27.1466C39.6384 25.8234 39.1309 24.8603 38.3886 24.2417C37.6736 23.6458 36.7967 23.415 36.09 23.415C35.4052 23.415 34.5712 23.6001 33.8676 24.1932C33.1507 24.7975 32.6658 25.7434 32.5449 27.0742C32.4101 28.5569 31.2292 29.0956 30.4094 29.0956C30.1864 29.0956 29.6623 28.9974 29.2154 28.688C28.811 28.4081 28.4604 27.9551 28.4604 27.1466C28.4604 25.7528 27.7999 24.8421 27.0122 24.3044C26.2655 23.7946 25.4273 23.6288 24.9619 23.5998C24.4452 23.5675 23.5783 23.7006 22.8172 24.2115C22.0056 24.7562 21.3636 25.701 21.3636 27.1466C21.3636 27.5884 21.2647 27.9135 21.12 28.1584C20.9748 28.4041 20.7753 28.583 20.5537 28.7191C20.0726 29.0146 19.4965 29.0956 19.2314 29.0956C19.0163 29.0956 18.5486 29.0019 18.1537 28.7058C17.7993 28.44 17.4657 27.9869 17.4657 27.1466C17.4657 25.7388 16.7766 24.8194 15.9432 24.2606C15.1515 23.7296 14.2369 23.5237 13.6898 23.4271ZM16.6674 34.5433C17.3115 34.5433 17.8336 34.0212 17.8336 33.3771C17.8336 32.733 17.3115 32.2109 16.6674 32.2109C16.0233 32.2109 15.5012 32.733 15.5012 33.3771C15.5012 34.0212 16.0233 34.5433 16.6674 34.5433ZM30.5917 34.5433C31.2358 34.5433 31.7579 34.0212 31.7579 33.3771C31.7579 32.733 31.2358 32.2109 30.5917 32.2109C29.9476 32.2109 29.4254 32.733 29.4254 33.3771C29.4254 34.0212 29.9476 34.5433 30.5917 34.5433ZM44.5186 34.5433C45.1627 34.5433 45.6848 34.0212 45.6848 33.3771C45.6848 32.733 45.1627 32.2109 44.5186 32.2109C43.8745 32.2109 43.3523 32.733 43.3523 33.3771C43.3523 34.0212 43.8745 34.5433 44.5186 34.5433ZM23.6295 38.5752C24.2736 38.5752 24.7958 38.0531 24.7958 37.409C24.7958 36.7649 24.2736 36.2428 23.6295 36.2428C22.9854 36.2428 22.4633 36.7649 22.4633 37.409C22.4633 38.0531 22.9854 38.5752 23.6295 38.5752ZM37.5538 38.5752C38.1979 38.5752 38.72 38.0531 38.72 37.409C38.72 36.7649 38.1979 36.2428 37.5538 36.2428C36.9097 36.2428 36.3876 36.7649 36.3876 37.409C36.3876 38.0531 36.9097 38.5752 37.5538 38.5752ZM13.4228 20.0147C13.4638 20.0049 13.5067 19.9998 13.5508 19.9998H47.2026C47.5062 19.9998 47.7523 20.2459 47.7523 20.5495C47.7523 20.8094 47.5719 21.0272 47.3295 21.0845C47.5714 21.0268 47.7513 20.8093 47.7513 20.5497C47.7513 20.2461 47.5052 20 47.2015 20H13.5497C13.506 20 13.4635 20.0051 13.4228 20.0147ZM13.4244 23.6796C13.4951 23.6628 13.5703 23.6599 13.6464 23.6733C14.1847 23.7683 15.0568 23.9672 15.804 24.4682C16.5799 24.9885 17.2157 25.8353 17.2157 27.1466C17.2157 28.0679 17.5882 28.5942 18.0037 28.9058C18.4469 29.2382 18.9689 29.3456 19.2314 29.3456C19.3786 29.3456 19.6064 29.3241 19.8635 29.2628C19.606 29.3243 19.3778 29.3458 19.2304 29.3458C18.9679 29.3458 18.4459 29.2384 18.0027 28.906C17.5872 28.5944 17.2147 28.0681 17.2147 27.1469C17.2147 25.8355 16.5788 24.9887 15.803 24.4684C15.0558 23.9674 14.1836 23.7686 13.6454 23.6736C13.5696 23.6602 13.4948 23.663 13.4244 23.6796ZM20.1227 30.3312C20.4826 30.2451 20.8826 30.1008 21.26 29.8689C22.0463 29.386 22.7131 28.5305 22.7131 27.1466C22.7131 26.1614 23.1221 25.632 23.5692 25.332C23.8155 25.1667 24.0833 25.0653 24.3213 25.008C24.083 25.0653 23.8149 25.1667 23.5682 25.3322C23.1211 25.6323 22.7121 26.1616 22.7121 27.1469C22.7121 28.5308 22.0453 29.3862 21.259 29.8692C20.8819 30.1008 20.4824 30.245 20.1227 30.3312ZM24.0694 23.9378C24.4084 23.8568 24.7177 23.835 24.9463 23.8493C25.3808 23.8764 26.1718 24.0334 26.8712 24.5108C27.5989 25.0077 28.2104 25.8449 28.2104 27.1466C28.2104 28.0459 28.6088 28.5722 29.0731 28.8936C29.5664 29.2351 30.1415 29.3456 30.4094 29.3456C30.5727 29.3456 30.7495 29.3262 30.9305 29.2848C30.7491 29.3263 30.572 29.3458 30.4084 29.3458C30.1405 29.3458 29.5654 29.2354 29.0721 28.8938C28.6078 28.5724 28.2094 28.0462 28.2094 27.1469C28.2094 25.8451 27.5979 25.0079 26.8702 24.5111C26.1708 24.0336 25.3798 23.8767 24.9453 23.8495C24.7169 23.8352 24.408 23.857 24.0694 23.9378ZM35.2801 23.7594C35.5595 23.6925 35.8343 23.6652 36.089 23.6652C36.7466 23.6652 37.5642 23.8812 38.2275 24.434C38.9096 25.0024 39.3874 25.8936 39.3874 27.1469C39.3874 28.0716 39.7635 28.6495 40.2118 29.0082C40.6827 29.3849 41.2475 29.529 41.5863 29.529C41.6792 29.529 41.7935 29.5147 41.9209 29.4843C41.7939 29.5146 41.68 29.5288 41.5873 29.5288C41.2485 29.5288 40.6838 29.3846 40.2128 29.0079C39.7645 28.6492 39.3884 28.0714 39.3884 27.1466C39.3884 25.8933 38.9106 25.0021 38.2286 24.4337C37.5652 23.881 36.7477 23.665 36.09 23.665C35.835 23.665 35.5598 23.6923 35.2801 23.7594ZM46.1738 23.9078C46.6944 23.7828 47.1955 23.7866 47.558 23.8591C47.8557 23.9187 48.0488 24.2083 47.9892 24.506C47.9458 24.7233 47.7797 24.8848 47.5775 24.9331C47.7802 24.8851 47.9467 24.7234 47.9902 24.5058C48.0498 24.208 47.8567 23.9184 47.559 23.8589C47.1963 23.7863 46.6948 23.7825 46.1738 23.9078ZM46.4345 24.976C46.231 25.0246 46.022 25.1017 45.827 25.216C45.337 25.5033 44.8847 26.0522 44.8847 27.1469C44.8847 28.3571 44.3371 29.2382 43.6558 29.805C43.1951 30.1883 42.6625 30.4374 42.179 30.5531C42.6628 30.4375 43.1958 30.1884 43.6569 29.8048C44.3381 29.238 44.8857 28.3569 44.8857 27.1466C44.8857 26.052 45.338 25.503 45.828 25.2158C46.0227 25.1017 46.2313 25.0246 46.4345 24.976ZM35.5386 24.8279C35.2561 24.8956 34.9788 25.0214 34.7373 25.225C34.3472 25.5538 33.9848 26.1405 33.8888 27.1964C33.7129 29.1309 32.3802 30.0652 31.1947 30.3486C32.38 30.0649 33.712 29.1306 33.8878 27.1966C33.9838 26.1407 34.3462 25.5541 34.7363 25.2253C34.9781 25.0214 35.2557 24.8955 35.5386 24.8279ZM16.8821 34.268C17.2845 34.1714 17.5836 33.8092 17.5836 33.3771C17.5836 32.8711 17.1734 32.4609 16.6674 32.4609C16.5931 32.4609 16.5208 32.4697 16.4517 32.4864C16.5205 32.4699 16.5924 32.4611 16.6664 32.4611C17.1724 32.4611 17.5826 32.8713 17.5826 33.3773C17.5826 33.8091 17.284 34.171 16.8821 34.268ZM30.3759 32.4864C30.4448 32.4699 30.5167 32.4611 30.5907 32.4611C31.0967 32.4611 31.5069 32.8713 31.5069 33.3773C31.5069 33.8091 31.2083 34.171 30.8064 34.268C31.2088 34.1714 31.5079 33.8092 31.5079 33.3771C31.5079 32.8711 31.0977 32.4609 30.5917 32.4609C30.5174 32.4609 30.4451 32.4697 30.3759 32.4864ZM44.7333 34.268C45.1357 34.1714 45.4348 33.8092 45.4348 33.3771C45.4348 32.8711 45.0246 32.4609 44.5186 32.4609C44.4443 32.4609 44.372 32.4697 44.3029 32.4864C44.3717 32.4699 44.4436 32.4611 44.5176 32.4611C45.0236 32.4611 45.4338 32.8713 45.4338 33.3773C45.4338 33.8091 45.1352 34.171 44.7333 34.268ZM23.4138 36.5183C23.4827 36.5018 23.5546 36.493 23.6285 36.493C24.1345 36.493 24.5447 36.9032 24.5447 37.4092C24.5447 37.8409 24.2462 38.2029 23.8442 38.2999C24.2467 38.2033 24.5458 37.8411 24.5458 37.409C24.5458 36.903 24.1355 36.4928 23.6295 36.4928C23.5552 36.4928 23.483 36.5016 23.4138 36.5183ZM37.7685 38.2999C38.1709 38.2033 38.47 37.8411 38.47 37.409C38.47 36.903 38.0598 36.4928 37.5538 36.4928C37.4795 36.4928 37.4073 36.5016 37.3381 36.5183C37.407 36.5018 37.4788 36.493 37.5528 36.493C38.0588 36.493 38.469 36.9032 38.469 37.4092C38.469 37.8409 38.1704 38.2029 37.7685 38.2999Z" fill="#4B6147"/>
</svg>
