<svg width="60" height="60" viewBox="0 0 60 60" fill="none" xmlns="http://www.w3.org/2000/svg">
<rect width="60" height="60" rx="30" fill="#EAD8C0"/>
<path fill-rule="evenodd" clip-rule="evenodd" d="M29.6178 23.7041C31.4761 21.4454 34.2855 20.0063 37.4327 20.0063V20C43.0201 20 47.5627 24.5425 47.5627 30.13C47.5627 35.7174 43.0139 40.2599 37.4327 40.2599C34.2917 40.2599 31.4761 38.8208 29.6178 36.5621C29.7742 36.3744 29.9181 36.1742 30.0558 35.9739C28.2162 38.5643 25.2067 40.2599 21.7966 40.2599C16.2092 40.2599 11.6667 35.7111 11.6667 30.13C11.6667 24.5488 16.2155 20.0063 21.7966 20.0063C25.2067 20.0063 28.2162 21.7019 30.0558 24.2923C29.9181 24.092 29.7742 23.8918 29.6178 23.7041ZM12.918 30.13C12.918 35.0291 16.9037 39.0086 21.7966 39.0086C26.6958 39.0086 30.6752 35.0291 30.6752 30.13C30.6752 25.2308 26.6958 21.2514 21.7966 21.2514C16.8975 21.2514 12.918 25.2308 12.918 30.13ZM30.3749 35.4922C31.9954 37.6258 34.5545 39.0086 37.4327 39.0086C42.3319 39.0086 46.3113 35.0291 46.3113 30.13C46.3113 25.2308 42.3256 21.2514 37.4327 21.2514C34.5545 21.2514 31.9954 22.6342 30.3749 24.7678C31.351 26.3258 31.9266 28.159 31.9266 30.13C31.9266 32.1009 31.351 33.9342 30.3749 35.4922ZM18.9497 30.1298C19.8136 30.1298 20.514 29.4295 20.514 28.5656C20.514 27.7017 19.8136 27.0014 18.9497 27.0014C18.0858 27.0014 17.3855 27.7017 17.3855 28.5656C17.3855 29.4295 18.0858 30.1298 18.9497 30.1298ZM34.5859 30.1298C35.4498 30.1298 36.1501 29.4295 36.1501 28.5656C36.1501 27.7017 35.4498 27.0014 34.5859 27.0014C33.722 27.0014 33.0216 27.7017 33.0216 28.5656C33.0216 29.4295 33.722 30.1298 34.5859 30.1298ZM40.2796 30.1298C41.1435 30.1298 41.8438 29.4295 41.8438 28.5656C41.8438 27.7017 41.1435 27.0014 40.2796 27.0014C39.4157 27.0014 38.7153 27.7017 38.7153 28.5656C38.7153 29.4295 39.4157 30.1298 40.2796 30.1298ZM40.874 34.8604C40.9804 34.9355 41.0993 34.9667 41.2181 34.9667C41.4184 34.9667 41.6186 34.8666 41.7375 34.6852C41.9314 34.3911 41.8501 34.0032 41.5623 33.8155C39.0532 32.1574 35.8121 32.1574 33.3031 33.8155C33.0153 34.0094 32.9402 34.3974 33.1279 34.6852C33.3219 34.973 33.7098 35.0481 33.9976 34.8604C36.0875 33.4776 38.7842 33.4776 40.874 34.8604ZM26.2078 28.5656C26.2078 29.4295 25.5075 30.1298 24.6436 30.1298C23.7797 30.1298 23.0794 29.4295 23.0794 28.5656C23.0794 27.7017 23.7797 27.0014 24.6436 27.0014C25.5075 27.0014 26.2078 27.7017 26.2078 28.5656ZM21.7966 34.9664C20.3575 34.9664 18.9184 34.5534 17.6671 33.7213C17.3792 33.5336 17.2979 33.1456 17.4919 32.8515C17.6796 32.5637 18.0675 32.4824 18.3616 32.6764C20.4514 34.0591 23.1481 34.0591 25.2379 32.6764C25.5258 32.4886 25.9137 32.5637 26.1077 32.8515C26.2954 33.1394 26.2203 33.5273 25.9325 33.7213C24.6811 34.5534 23.242 34.9664 21.8029 34.9664H21.7966Z" fill="#4B6147"/>
</svg>
