<svg width="60" height="60" viewBox="0 0 60 60" fill="none" xmlns="http://www.w3.org/2000/svg">
<rect width="60" height="60" rx="30" fill="#EAD8C0"/>
<path d="M45.7943 18.0384C44.958 16.893 43.6525 16.2711 41.918 16.1875C39.6161 16.093 37.467 17.2093 36.1798 18.0493C34.8816 16.8639 32.907 16.2566 30.2307 16.1875C27.5652 16.2457 25.6089 16.8711 24.3034 18.0857C22.9907 17.2166 20.827 16.093 18.507 16.1875C16.7725 16.2711 15.4525 16.893 14.6307 18.0384C12.947 20.3511 13.9034 23.9257 13.9361 24.0748C14.3423 25.8725 15.1352 27.5601 16.2598 29.0202L16.4779 29.3002H16.5798C17.0395 29.7062 17.6319 29.9299 18.2452 29.9293C18.7013 29.9248 19.148 29.7993 19.5398 29.5657C20.8852 28.7111 20.9943 26.6966 19.8307 24.0748C19.6168 23.505 19.2483 23.006 18.7665 22.6341C18.2848 22.2622 17.7088 22.032 17.1034 21.9693H16.8379C16.2374 21.9991 15.6532 22.1751 15.1361 22.4821C15.027 21.4348 15.0452 19.9366 15.8089 18.8857C16.3798 18.1111 17.2707 17.7039 18.5725 17.6421C20.4634 17.5548 22.3107 18.5293 23.3798 19.2239C23.3434 19.2784 23.307 19.333 23.2779 19.3875C22.1543 21.3402 24.5289 29.133 25.3361 31.6311C25.4416 32.3584 26.3434 38.8821 25.3361 43.133C25.2913 43.3205 25.3228 43.5183 25.4237 43.6826C25.5247 43.8469 25.6867 43.9645 25.8743 44.0093C25.9312 44.0145 25.9884 44.0145 26.0452 44.0093C26.2072 44.0094 26.3645 43.9554 26.4923 43.856C26.6201 43.7565 26.711 43.6172 26.7507 43.4602C27.5943 39.9112 27.2125 35.0966 26.9434 32.7293C27.9628 33.1263 29.0496 33.3215 30.1434 33.3039H30.3143C31.4069 33.3025 32.4887 33.0889 33.4998 32.6748C33.2307 35.0239 32.8452 39.8675 33.6889 43.4239C33.7273 43.5866 33.8205 43.7311 33.953 43.8331C34.0855 43.9351 34.249 43.9883 34.4161 43.9839C34.4718 43.989 34.5278 43.989 34.5834 43.9839C34.7673 43.932 34.9235 43.8099 35.018 43.6439C35.1126 43.4778 35.1381 43.2812 35.0889 43.0966C34.0779 38.8239 34.9943 32.2493 35.0889 31.5839C35.9216 29.1439 38.3616 21.3402 37.2707 19.3948C37.227 19.3184 37.1798 19.2457 37.1325 19.173C38.2525 18.4457 40.0416 17.5657 41.8598 17.6457C43.147 17.7039 44.0416 18.1111 44.6234 18.893C45.387 19.9402 45.4052 21.4384 45.2961 22.4893C44.7681 22.1802 44.1728 22.0043 43.5616 21.9766H43.3289C42.7297 22.039 42.1595 22.2655 41.6808 22.6312C41.2022 22.9969 40.8338 23.4877 40.6161 24.0493C39.4525 26.7075 39.5398 28.7221 40.907 29.5911C41.3651 29.8578 41.8957 29.9733 42.4232 29.9211C42.9507 29.8688 43.4483 29.6516 43.8452 29.3002H43.9434L44.1616 29.0166C45.2883 27.5591 46.0815 25.8722 46.4852 24.0748V24.0748C46.5289 23.9257 47.478 20.3511 45.7943 18.0384ZM16.8707 23.4311H16.9834C17.3202 23.4759 17.6382 23.6121 17.903 23.8249C18.1678 24.0378 18.3692 24.3191 18.4852 24.6384C19.2852 26.4566 19.3943 27.9475 18.787 28.333C18.5707 28.4588 18.3169 28.5045 18.0702 28.462C17.8235 28.4194 17.5997 28.2913 17.4379 28.1002L17.2198 27.8457C16.3995 26.7119 15.8 25.4339 15.4525 24.0784C15.8294 23.6954 16.3344 23.4649 16.8707 23.4311V23.4311ZM33.7907 30.933C32.6855 31.5673 31.4282 31.8879 30.1543 31.8602C28.9408 31.8816 27.7422 31.5898 26.6743 31.013C25.2198 26.453 24.0016 21.0675 24.5507 20.1039C25.4525 18.5221 27.3216 17.7184 30.2307 17.6421C33.2089 17.7184 35.0889 18.5221 36.0052 20.1148C36.5434 21.053 35.2852 26.4057 33.7907 30.933ZM43.2234 27.8457L42.987 28.1002C42.8294 28.2887 42.6111 28.4165 42.3696 28.4616C42.1281 28.5067 41.8784 28.4664 41.6634 28.3475C41.0307 27.9475 41.1398 26.453 41.9543 24.6021C42.0716 24.2876 42.2737 24.0118 42.5381 23.8051C42.8026 23.5985 43.119 23.469 43.4525 23.4311H43.5252C44.0732 23.4635 44.5905 23.695 44.9798 24.0821C44.6351 25.4355 44.0394 26.7122 43.2234 27.8457V27.8457Z" fill="#4B6147"/>
</svg>
