<svg width="60" height="60" viewBox="0 0 60 60" fill="none" xmlns="http://www.w3.org/2000/svg">
<rect width="60" height="60" rx="30" fill="#EAD8C0"/>
<path fill-rule="evenodd" clip-rule="evenodd" d="M16.2598 15.025C15.8814 14.9236 15.4925 15.1481 15.3911 15.5265C15.2897 15.9049 15.5142 16.2938 15.8926 16.3952L27.3958 19.4774C27.3954 19.4962 27.3951 19.515 27.3951 19.5339C27.3951 20.5953 28.0946 21.4933 29.0577 21.7923C29.0525 21.8269 29.0498 21.8623 29.0498 21.8983V44.8316H20.3021C19.9104 44.8316 19.5928 45.1491 19.5928 45.5409C19.5928 45.9326 19.9104 46.2501 20.3021 46.2501H39.2161C39.6078 46.2501 39.9254 45.9326 39.9254 45.5409C39.9254 45.1491 39.6078 44.8316 39.2161 44.8316H30.4684V21.8983C30.4684 21.8623 30.4657 21.827 30.4605 21.7924C31.0514 21.6092 31.5431 21.2005 31.835 20.6669L44.4388 24.0441C44.8172 24.1455 45.2061 23.9209 45.3075 23.5426C45.4088 23.1642 45.1843 22.7753 44.8059 22.6739L32.1093 19.2718C31.9789 18.0894 30.9766 17.1696 29.7594 17.1696C28.9784 17.1696 28.2859 17.5483 27.8554 18.132L16.2598 15.025ZM29.7594 20.4796C30.2817 20.4796 30.7051 20.0562 30.7051 19.5339C30.7051 19.0116 30.2817 18.5882 29.7594 18.5882C29.2371 18.5882 28.8137 19.0116 28.8137 19.5339C28.8137 20.0562 29.2371 20.4796 29.7594 20.4796ZM41.0327 25.1263C40.9126 24.886 40.667 24.7342 40.3983 24.7342C40.1297 24.7342 39.8841 24.886 39.7639 25.1263L33.8533 36.9475C33.7776 37.099 33.7585 37.2725 33.7996 37.4367C34.2291 39.1547 36.1399 42.7025 40.3983 42.7025C44.6568 42.7025 46.5676 39.1547 46.9971 37.4367C47.0381 37.2725 47.0191 37.099 46.9434 36.9475L41.0327 25.1263ZM40.3983 41.2839C37.6877 41.2839 36.1529 39.4319 35.49 37.974H45.3066C44.6437 39.4319 43.109 41.2839 40.3983 41.2839ZM35.6353 36.5554H45.1613L40.3983 27.0294L35.6353 36.5554ZM19.1199 18.8252C19.3886 18.8252 19.6342 18.977 19.7543 19.2173L25.6649 31.0385C25.7407 31.19 25.7597 31.3635 25.7186 31.5278C25.2891 33.2458 23.3783 36.7935 19.1199 36.7935C14.8615 36.7935 12.9507 33.2458 12.5212 31.5278C12.4801 31.3635 12.4992 31.19 12.5749 31.0385L18.4855 19.2173C18.6057 18.977 18.8513 18.8252 19.1199 18.8252ZM14.2116 32.065C14.8745 33.5229 16.4093 35.375 19.1199 35.375C21.8306 35.375 23.3653 33.5229 24.0282 32.065H14.2116ZM23.8829 30.6465H14.3569L19.1199 21.1205L23.8829 30.6465Z" fill="#4B6147"/>
</svg>
