<svg width="358" height="147" viewBox="0 0 358 147" fill="none" xmlns="http://www.w3.org/2000/svg">
<path fill-rule="evenodd" clip-rule="evenodd" d="M314.353 104.727C314.163 107.464 313.977 110.147 314.46 112.74C314.363 113.794 314.414 114.776 314.464 115.717C314.495 116.304 314.525 116.875 314.518 117.438C313.363 119.49 312.23 121.664 311.26 123.779C310.362 125.736 308.904 127.071 307.396 128.452C306.722 129.069 306.039 129.695 305.39 130.389C304.69 131.149 303.99 131.379 303.38 131.139C303.328 131.315 303.247 131.491 303.161 131.674L303.161 131.676L303.16 131.676L303.16 131.676C303.066 131.878 302.968 132.089 302.9 132.319C303.38 132.039 303.86 131.779 304.21 132.139C304.432 132.368 303.999 132.758 303.558 133.157C303.343 133.352 303.125 133.549 302.98 133.729C302.468 134.384 301.743 134.826 301.017 135.268C300.724 135.447 300.43 135.626 300.15 135.819V136.899C300.26 137.099 300.38 137.279 300.53 137.449C300.61 137.199 300.72 136.959 300.91 136.729C301.87 135.587 302.968 134.559 304.066 133.532L304.067 133.531C304.834 132.813 305.601 132.096 306.32 131.339C306.411 131.242 306.555 131.183 306.695 131.126C306.755 131.101 306.816 131.076 306.87 131.049C306.944 131.19 306.888 131.308 306.833 131.422C306.807 131.478 306.78 131.533 306.77 131.589C306.65 132.339 306.42 133.049 306.14 133.739C306.56 133.439 307.03 133.179 307.51 133.019C307.618 132.669 307.621 132.296 307.624 131.922C307.628 131.356 307.633 130.791 308 130.309C308.24 129.589 308.69 128.959 309.2 128.369C311.3 125.909 312.98 123.239 314.3 120.379L314.308 120.363L314.317 120.342L314.325 120.325C314.329 120.314 314.334 120.303 314.338 120.292C314.346 120.274 314.353 120.257 314.359 120.24C314.367 120.22 314.374 120.201 314.381 120.182L314.381 120.182L314.388 120.164C314.491 120.413 314.684 120.591 315 120.6C315.191 120.606 315.34 120.577 315.455 120.522C316.029 122.128 316.394 125.708 316.495 126.698C316.508 126.822 316.516 126.905 316.52 126.939C316.61 127.799 316.65 128.669 316.56 129.559C316.39 131.259 316.12 132.659 315.64 134.319C315.357 135.319 315.076 136.318 314.795 137.317L314.792 137.33C314.372 138.826 313.951 140.323 313.52 141.819C313.512 141.849 313.505 141.879 313.5 141.909C313.494 141.938 313.49 141.966 313.486 141.994L313.481 142.029C313.471 142.102 313.461 142.173 313.44 142.239C313.69 142.349 313.88 142.509 313.96 142.779C313.985 142.784 314.013 142.792 314.04 142.799C314.068 142.807 314.095 142.814 314.12 142.819C314.48 139.579 315.45 136.449 316.64 133.369C316.73 133.129 316.86 132.799 317.14 132.829C317.484 132.863 317.519 133.149 317.55 133.412L317.551 133.414C317.554 133.447 317.558 133.479 317.563 133.51L317.567 133.537L317.57 133.559C317.619 133.879 317.679 134.199 317.739 134.52C317.876 135.254 318.013 135.992 318.02 136.729C318.032 137.899 318.207 139.066 318.381 140.234V140.235V140.235V140.235V140.236V140.236V140.236V140.236V140.237V140.237C318.648 142.025 318.915 143.813 318.6 145.609C319 145.379 319.4 145.159 319.8 144.999C319.62 144.739 319.5 144.439 319.45 144.059C318.79 139.029 318.17 133.989 317.87 128.929C317.866 128.853 317.845 128.769 317.823 128.682C317.757 128.414 317.685 128.125 318.07 128.019C318.24 127.969 318.6 128.319 318.79 128.549C320.38 130.489 322.26 132.109 324.64 133.229C324.65 133.229 324.65 133.239 324.66 133.239C324.78 133.069 324.92 132.899 325.08 132.749C324.52 132.509 323.96 132.219 323.43 131.839C320.46 129.679 317.4 127.449 317.23 123.619L317.228 123.572V123.572C317.159 122.019 317.093 120.545 316.4 119.099C315.99 118.229 315.94 117.309 315.92 116.369C315.831 116.387 315.742 116.402 315.653 116.415C314.723 108.816 315.422 101.2 316.68 93.79C317.129 91.1569 317.521 88.5119 317.913 85.8664L317.914 85.8639C318.866 79.4377 319.819 73.0086 321.59 66.74C322.19 64.63 322.99 62.71 324.28 60.8C324.971 59.7761 325.732 58.7978 326.493 57.8209C327.648 56.3362 328.802 54.8545 329.7 53.22C332.74 47.67 334.32 41.45 334.65 35.32C334.717 34.0754 334.796 32.8285 334.875 31.5795L334.875 31.5754C335.225 26.0613 335.578 20.5056 334.86 14.93C334.51 12.1911 334.618 9.38682 334.726 6.58048V6.58013V6.57977V6.57942V6.57907V6.57872V6.57837V6.57803V6.57768V6.57734V6.577V6.57633V6.57567V6.575V6.57433V6.57366V6.57298V6.5723V6.57162V6.57093V6.57024C334.781 5.12782 334.837 3.68486 334.83 2.24996C334.83 2.13091 334.836 2.00238 334.841 1.86916L334.841 1.86781V1.86776C334.875 1.08368 334.915 0.138108 333.89 0.00996122C332.87 -0.109503 332.619 0.868861 332.406 1.69562V1.69566C332.387 1.76856 332.369 1.84028 332.35 1.90996C331.079 6.76572 329.002 11.2922 326.925 15.8203L326.925 15.8208C325.931 17.9881 324.937 20.1557 324.03 22.36C323.942 22.5737 323.823 22.7765 323.705 22.9797C323.568 23.2138 323.431 23.4483 323.34 23.7C322.943 24.7936 322.425 25.8254 321.906 26.8593C320.92 28.8223 319.931 30.793 319.76 33.21C319.38 38.55 319.48 43.81 320.23 49.08C321.23 56.05 322.08 62.95 319.76 69.89C318.65 73.21 318.17 76.74 317.76 80.26C317.44 83.0193 316.924 85.7565 316.409 88.4921L316.409 88.493L316.409 88.4939L316.409 88.4948L316.408 88.4957L316.408 88.4966L316.408 88.4975L316.408 88.4984L316.408 88.4993L316.407 88.5002C316.232 89.43 316.057 90.3597 315.89 91.29C315.83 91.66 315.55 92.21 315.29 92.26C314.893 92.3411 314.844 91.9677 314.802 91.6477C314.793 91.5735 314.783 91.5021 314.77 91.44C314.283 88.9944 313.556 86.607 312.83 84.2197C311.798 80.8279 310.767 77.4366 310.42 73.88C309.41 63.61 306.98 53.81 300.79 45.32C297.463 40.7579 294.569 35.9266 291.674 31.0946L291.673 31.0935L291.673 31.0928L291.672 31.0923L291.672 31.092L291.672 31.0917L291.672 31.0914L291.672 31.0911L291.672 31.0908C290.582 29.2725 289.493 27.4541 288.38 25.65C287.86 24.8 287.22 24.01 286.57 23.24C286.24 22.84 285.75 22.6 285.24 22.98C284.78 23.32 284.67 23.8 284.86 24.32C286.4 28.42 286.94 32.79 287.36 37.13C287.617 39.7932 287.73 42.4541 287.844 45.116V45.1169V45.1179C287.965 47.9527 288.086 50.7887 288.38 53.63C288.423 54.0462 288.454 54.4567 288.485 54.8618L288.485 54.8635L288.486 54.8653L288.486 54.8673V54.8676C288.614 56.5435 288.735 58.1273 289.62 59.64C291.74 63.3 294.92 67.41 297.95 70.36C299.68 72.05 301.6 73.55 303.57 74.96C304.158 75.3828 304.782 75.777 305.41 76.1726C307.452 77.4612 309.52 78.7659 310.4 81.13C312.28 86.21 313.58 91.46 314.34 96.87C314.714 99.5158 314.532 102.145 314.353 104.727ZM293.262 39.9642L293.262 39.9646L293.262 39.9651C294.654 43.4741 296.047 46.9856 296.43 50.77L296.434 50.8076L296.44 50.8668C296.476 51.2496 296.536 51.8784 297.16 51.75C297.41 51.7 297.7 51.11 297.71 50.76C297.744 49.9755 297.871 49.1834 297.998 48.3924C298.397 45.9062 298.794 43.43 296.29 41.23C295.451 40.4899 294.924 39.4016 294.394 38.3045L294.394 38.3043L294.394 38.304C294.071 37.6372 293.747 36.9672 293.35 36.37C293.203 36.1477 293.077 35.8981 292.95 35.6462C292.561 34.8729 292.161 34.0789 291.093 33.9946C291.696 36.0158 292.479 37.9896 293.262 39.9642ZM291.15 32.97C291.309 33.2971 291.311 33.633 291.073 33.9286C290.966 33.5861 290.868 33.2528 290.77 32.91C290.813 32.9166 290.867 32.9188 290.919 32.921C291.025 32.9255 291.13 32.9299 291.15 32.97ZM297.49 62.128C297.228 62.0667 296.975 62.0075 296.77 62.07C293.01 61.85 290.37 59 290.41 55.43C290.42 54.82 290.56 54.31 291.15 54.46C291.483 54.5472 291.825 54.6262 292.168 54.7057C293.793 55.0816 295.46 55.4674 296.5 56.78C296.821 57.1833 297.093 57.6562 297.372 58.1392L297.372 58.1396C297.632 58.5904 297.896 59.05 298.21 59.47C298.66 60.07 299.14 60.94 298.8 61.7C298.506 62.3659 297.982 62.2433 297.49 62.128ZM325.635 32.5321C326.536 34.3566 327.427 36.1604 327.57 38.14C327.532 38.3625 327.497 38.574 327.463 38.7768L327.463 38.7774L327.463 38.7786L327.463 38.7792L327.463 38.7803L327.462 38.7824C327.365 39.3701 327.279 39.8855 327.16 40.39C327.12 40.5716 327.021 40.7397 326.92 40.9095C326.872 40.992 326.823 41.0749 326.78 41.16C326.679 41.0937 326.564 41.0353 326.449 40.9771C326.201 40.8509 325.953 40.7252 325.85 40.52C324.55 38.03 323.3 35.51 322.06 32.98C321.88 32.63 321.79 32.2 321.79 31.81L321.791 31.6837C321.8 30.2825 321.81 28.5279 323.14 28.13C323.854 27.9142 324.17 28.9163 324.462 29.843C324.562 30.1618 324.66 30.4717 324.77 30.72C325.042 31.3303 325.339 31.9315 325.635 32.5305L325.635 32.5308L325.635 32.5311L325.635 32.5315L325.635 32.5319L325.635 32.5321ZM299.72 59.06C298.78 57.81 298.48 56.36 298.36 54.49C298.424 54.0308 298.488 53.547 298.555 53.0452C298.74 51.6565 298.943 50.1306 299.2 48.61C299.29 48.08 299.43 47.3 300.05 47.19C300.467 47.1142 300.643 47.5037 300.812 47.8796C300.866 47.9997 300.92 48.1183 300.98 48.22C301.111 48.4407 301.247 48.6579 301.382 48.8734C302.37 50.454 303.303 51.9451 301.78 54.11C301.244 54.8743 301.238 56.0118 301.232 57.1547C301.229 57.7163 301.226 58.2793 301.16 58.8C301.12 59.18 301 59.77 300.76 59.86C300.316 60.0236 300.103 59.6711 299.898 59.3324C299.839 59.2365 299.782 59.1416 299.72 59.06ZM291.099 38.0657C292.18 40.4771 293.231 42.8236 293.25 45.29C293.67 46.7 293.24 46.78 292.48 46.54C290.69 46.02 289.19 45.5 289.17 43.05C289.156 41.1013 288.885 39.1478 288.614 37.1962C288.499 36.3736 288.385 35.5513 288.29 34.73C288.287 34.7022 288.283 34.674 288.278 34.6456L288.267 34.5727L288.267 34.572C288.213 34.2228 288.156 33.8548 288.52 33.69C288.92 33.52 289.38 33.78 289.51 34.16C289.949 35.4982 290.528 36.791 291.099 38.0657ZM329.61 46.49C330.8 45.59 330.87 45.68 330.92 46.75C330.32 49.08 329.25 51.33 327.87 53.42C327.32 54.24 326.61 54.98 325.88 55.66C325.515 55.9979 325.131 56.5756 324.798 57.0769C324.401 57.6735 324.076 58.1621 323.94 58.01C323.278 57.2757 323.616 56.3912 323.954 55.5056C324.086 55.161 324.217 54.8161 324.29 54.48C325.01 51.13 326.91 48.51 329.61 46.49ZM328.057 25.7341C328.538 26.9208 329.037 28.1548 329.05 29.69C328.833 30.5177 328.56 31.6041 328.277 32.727L328.275 32.7356L328.274 32.7397L328.273 32.7419L328.11 33.39C326.857 32.8819 326.507 31.6785 326.199 30.6174C326.143 30.4253 326.088 30.2378 326.03 30.06C325.835 29.4717 325.519 28.9052 325.202 28.3361C324.446 26.98 323.682 25.6086 324.52 23.89C324.574 23.7786 324.628 23.6601 324.682 23.5391C324.978 22.8781 325.307 22.1453 326 22.12C326.87 22.09 327.21 23.17 327.39 23.87C327.558 24.5018 327.805 25.1101 328.056 25.7312L328.057 25.7335L328.057 25.7341ZM308.431 70.8341C308.539 72.0038 308.646 73.1721 308.81 74.33C308.77 74.4501 308.771 74.588 308.772 74.7211C308.775 74.9869 308.777 75.2333 308.45 75.28C308.36 75.295 308.196 74.9486 308.049 74.6355C308 74.5319 307.952 74.432 307.91 74.35C307.733 74.0109 307.556 73.6711 307.379 73.3312L307.378 73.3301L307.378 73.3296L307.377 73.329L307.377 73.3284L307.377 73.3279L307.377 73.3273L307.376 73.3267L307.376 73.3261L307.376 73.3256L307.375 73.325C306.906 72.4238 306.436 71.5216 305.95 70.63C304.65 68.24 304.11 65.79 305.41 63.23C305.507 63.047 305.53 62.8053 305.553 62.565C305.6 62.083 305.646 61.6066 306.28 61.62C306.769 61.6274 306.868 62.1282 306.964 62.611L306.964 62.6114L306.964 62.6118L306.964 62.6121L306.965 62.6124C306.998 62.7811 307.031 62.9476 307.08 63.09C307.95 65.61 308.191 68.2254 308.431 70.8341ZM294.2 53.74C289.91 53.16 289.3 52.65 289.27 49.65C289.24 46.88 289.31 46.84 291.78 48.08C291.87 48.125 291.96 48.1675 292.05 48.21C292.14 48.2525 292.23 48.295 292.32 48.34C294.14 49.25 295.83 52 295.39 53.32C295.199 53.9125 294.809 53.8445 294.388 53.7708C294.326 53.76 294.263 53.749 294.2 53.74ZM302.62 64.2C302.08 63.44 301.89 62.57 302.01 61.63L302.052 61.3397L302.073 61.1861C302.106 60.9571 302.138 60.7282 302.17 60.4992L302.172 60.4841L302.174 60.4686L302.177 60.4506L302.18 60.4306L302.18 60.4292C302.428 58.6601 302.676 56.8934 303.01 55.14C303.014 55.1194 303.018 55.0968 303.022 55.0727L303.023 55.0707L303.023 55.0701L303.023 55.0699C303.085 54.7164 303.207 54.0226 303.86 54.2C304.055 54.2537 304.2 54.4925 304.347 54.7344C304.419 54.8526 304.491 54.9715 304.57 55.07C306.373 57.3308 305.55 59.4089 304.73 61.4811C304.367 62.3968 304.005 63.3113 303.87 64.24C303.73 65.19 303 64.74 302.62 64.2ZM332.817 39.0688C332.798 39.2725 332.777 39.5017 332.76 39.76C332.932 41.7441 331.383 43.1059 329.772 44.5221C329.321 44.9188 328.865 45.3198 328.44 45.74C328.26 45.92 327.83 46.05 327.65 45.96C327.326 45.7859 327.377 45.468 327.427 45.1546C327.441 45.0718 327.454 44.9894 327.46 44.91C327.67 42.07 329.44 40.1 331.27 38.18C331.296 38.1528 331.322 38.1244 331.349 38.0953L331.35 38.0939L331.35 38.0935C331.648 37.7686 332.026 37.3568 332.53 37.65C332.927 37.88 332.889 38.2864 332.817 39.0688ZM300.813 67.4662C300.376 67.3645 299.936 67.262 299.71 67.66C299.408 67.626 299.123 67.6105 298.854 67.5958C298.329 67.5673 297.863 67.5419 297.44 67.39C295.9 66.83 294.56 65.25 294.79 64.1C294.998 63.083 296.026 63.3124 297.027 63.5355C297.423 63.624 297.815 63.7114 298.15 63.72C298.82 63.74 299.54 64 300.15 64.31C301.17 64.83 302.13 65.79 302.01 66.84C301.91 67.7214 301.364 67.5945 300.813 67.4662ZM323.973 44.6895C322.846 42.2691 321.715 39.838 321.21 37.18C321.1 36.79 321 36.34 321.54 36.27C321.74 36.24 322.07 36.51 322.2 36.73C322.462 37.1541 322.701 37.5904 322.94 38.0261C323.231 38.556 323.521 39.085 323.85 39.59C324.132 40.0175 324.304 40.4896 324.478 40.9648C324.791 41.8234 325.108 42.6927 326.08 43.33C327.26 44.11 326.21 45.85 325.46 46.42C324.732 46.9703 324.496 46.1749 324.305 45.5331C324.25 45.3469 324.199 45.1737 324.14 45.05L323.973 44.6895ZM322.19 52.54C321.44 50.14 321.15 47.64 320.9 45.3C320.903 45.0785 320.883 44.8461 320.863 44.6183C320.803 43.9205 320.747 43.2658 321.35 43.1C321.837 42.9679 322.079 43.7007 322.283 44.3205L322.283 44.3209C322.327 44.4521 322.368 44.5782 322.41 44.69C322.559 45.0842 322.72 45.4767 322.881 45.8693C323.736 47.9563 324.593 50.0465 323.65 52.42C323.523 52.7389 323.36 53.0428 323.198 53.3459C323.131 53.4704 323.064 53.5948 323 53.72C322.914 53.6 322.817 53.4837 322.719 53.3675C322.5 53.1061 322.28 52.8446 322.19 52.54ZM333.519 30.7394C333.521 30.8567 333.523 30.9563 333.53 31.03C333.445 31.5126 333.401 31.9911 333.359 32.4532C333.217 34.0015 333.092 35.366 331.49 36.09C331.134 36.2487 330.887 36.5417 330.64 36.8333C330.313 37.2215 329.987 37.6071 329.41 37.67C329.42 37.3536 329.401 37.0247 329.382 36.6956V36.695V36.6945V36.694V36.6935V36.693V36.6925V36.692V36.6916V36.6911V36.6907C329.34 35.9603 329.299 35.2288 329.56 34.63C330.118 33.3325 330.87 32.1203 331.622 30.9077C331.867 30.5128 332.112 30.1179 332.35 29.72C332.57 29.35 333.21 29.11 333.32 29.39C333.501 29.8502 333.512 30.3787 333.519 30.7394ZM300.506 69.0783C300.727 69.1275 300.948 69.177 301.13 69.11C302.95 69.1 305.77 71.93 305.7 73.65C305.66 74.53 305.21 74.29 304.75 74.04C303.16 73.18 301.64 72.23 300.47 70.82C300.372 70.6997 300.244 70.5862 300.116 70.4716C299.773 70.167 299.423 69.855 299.59 69.39C299.766 68.9129 300.135 68.9953 300.506 69.0783ZM329.676 21.5034L329.677 21.5058L329.677 21.5089C329.725 21.8041 329.772 22.098 329.82 22.39C329.783 22.5754 329.787 22.7866 329.792 22.9949C329.802 23.4491 329.812 23.8897 329.38 24.02C328.759 24.2221 328.67 23.7571 328.586 23.3173C328.553 23.1479 328.521 22.9823 328.46 22.86C328.316 22.5672 328.147 22.2781 327.977 21.9881L327.976 21.9874C327.299 20.8316 326.615 19.6627 327.47 18.2C327.66 17.88 327.93 17.48 328.24 17.4C328.879 17.2497 329.006 17.8489 329.093 18.262C329.099 18.2889 329.105 18.3149 329.11 18.34C329.336 19.3914 329.507 20.4549 329.676 21.5023L329.676 21.5034ZM333.765 22.6521C333.739 22.8865 333.713 23.1233 333.78 23.31C333.817 24.915 332.97 26.0485 332.13 27.1733C331.829 27.5762 331.529 27.978 331.27 28.4C331.01 28.83 330.41 28.86 330.63 28.33C330.895 27.689 330.878 26.9628 330.862 26.2373C330.833 24.9594 330.805 23.6837 332.31 22.88C332.497 22.7808 332.6 22.5415 332.702 22.3045C332.857 21.9442 333.01 21.5891 333.45 21.74C333.851 21.8716 333.809 22.2585 333.765 22.6521ZM333.42 12.5632L333.42 12.5682L333.422 12.5916C333.462 13.136 333.499 13.626 333.53 14C333.477 14.5685 333.499 15.1208 333.519 15.6483V15.6486V15.6489V15.6493V15.6496V15.6499V15.6502V15.6505V15.6508V15.651V15.6513C333.572 17.0246 333.618 18.2289 332.34 19.11C331.835 18.1441 332.018 17.1865 332.202 16.2293C332.301 15.7099 332.401 15.1905 332.39 14.67C332.39 14.57 332.39 14.46 332.42 14.37C332.545 13.9735 332.562 13.5489 332.578 13.1241C332.608 12.3596 332.638 11.5942 333.3 10.99C333.339 11.4846 333.376 11.9812 333.411 12.4437L333.411 12.4485L333.415 12.4972L333.416 12.5137L333.418 12.5405L333.42 12.5632ZM331.328 11.7239L331.329 11.7245V11.7249C331.357 11.958 331.385 12.1929 331.42 12.38C331.362 12.6839 331.312 12.9878 331.263 13.2906C331.167 13.8743 331.072 14.4537 330.92 15.02C330.88 15.1664 330.87 15.3503 330.86 15.5385C330.833 16.0441 330.804 16.5801 330.17 16.5C329.52 16.41 329.34 15.47 329.43 14.74C329.54 13.86 329.66 12.98 329.9 12.13C329.923 12.053 329.944 11.9717 329.965 11.8886C330.118 11.3024 330.293 10.6261 331.09 10.74C331.212 10.7535 331.27 11.2346 331.328 11.7239ZM133.61 127.3V146.37H132.35V127.3H133.61ZM2.24 146.36V134.69L0.39 134.57C0.13 134.56 0 134.45 0 134.25V133.74H2.24V132.09C2.24 131.35 2.34 130.69 2.53 130.13C2.72 129.57 3 129.1 3.35 128.72C3.7 128.34 4.13 128.06 4.63 127.87C5.13 127.68 5.68 127.59 6.28 127.59C6.55 127.59 6.83 127.61 7.11 127.66C7.39 127.71 7.63 127.78 7.84 127.86L7.8 128.46C7.79 128.58 7.71 128.64 7.55 128.64C7.44 128.64 7.3 128.63 7.12 128.6C6.94 128.57 6.72 128.56 6.45 128.56C6.02 128.56 5.62 128.62 5.25 128.75C4.88 128.88 4.57 129.08 4.3 129.36C4.04 129.64 3.83 130 3.68 130.45C3.53 130.9 3.46 131.45 3.46 132.11V133.72H7.73V134.65H3.49V146.36H2.24ZM13.8398 133.33V141.67C13.8398 142.89 14.1198 143.85 14.6898 144.55C15.2598 145.25 16.1198 145.59 17.2798 145.59C18.1398 145.59 18.9398 145.37 19.6798 144.94C20.4198 144.51 21.0898 143.91 21.6798 143.14V133.33H22.9398V146.37H22.2498C22.0098 146.37 21.8798 146.26 21.8698 146.03L21.7498 144.09C21.1398 144.84 20.4398 145.45 19.6398 145.9C18.8398 146.35 17.9498 146.58 16.9698 146.58C16.2398 146.58 15.5998 146.47 15.0498 146.24C14.4998 146.01 14.0498 145.69 13.6898 145.26C13.3298 144.83 13.0498 144.32 12.8698 143.71C12.6798 143.11 12.5898 142.42 12.5898 141.67V133.33H13.8398ZM29.8799 133.34V146.38H31.1499V136.6C31.7299 135.83 32.3899 135.22 33.1299 134.78C33.8699 134.34 34.6799 134.12 35.5399 134.12C36.6999 134.12 37.5699 134.46 38.1299 135.16C38.6999 135.86 38.9799 136.82 38.9799 138.04V146.38H40.2399V138.04C40.2399 137.29 40.1499 136.6 39.9599 136C39.7799 135.39 39.4999 134.88 39.1399 134.45C38.7799 134.03 38.3199 133.7 37.7699 133.47C37.2199 133.24 36.5799 133.13 35.8599 133.13C34.8799 133.13 33.9899 133.36 33.1899 133.82C32.3899 134.28 31.6899 134.89 31.0899 135.64L30.9699 133.67C30.9299 133.45 30.7999 133.34 30.5699 133.34H29.8799ZM55.4998 135.07C55.4598 135.11 55.4098 135.15 55.3698 135.18C55.3298 135.21 55.2698 135.23 55.1998 135.23C55.1098 135.23 54.9898 135.17 54.8398 135.05C54.6898 134.93 54.4798 134.8 54.2198 134.66C53.9598 134.52 53.6398 134.39 53.2598 134.27C52.8798 134.15 52.4098 134.09 51.8598 134.09C51.0998 134.09 50.4298 134.22 49.8398 134.49C49.2498 134.76 48.7598 135.14 48.3598 135.64C47.9598 136.14 47.6498 136.74 47.4398 137.45C47.2298 138.16 47.1198 138.95 47.1198 139.84C47.1198 140.76 47.2298 141.57 47.4398 142.28C47.6498 142.99 47.9598 143.58 48.3598 144.07C48.7598 144.56 49.2398 144.92 49.7998 145.18C50.3598 145.43 50.9898 145.56 51.6798 145.56C52.3198 145.56 52.8498 145.49 53.2698 145.34C53.6998 145.19 54.0498 145.03 54.3298 144.86C54.6098 144.69 54.8298 144.52 54.9898 144.37C55.1498 144.22 55.2798 144.15 55.3798 144.15C55.4898 144.15 55.5798 144.19 55.6398 144.28L55.9798 144.7C55.7798 144.96 55.5198 145.21 55.2098 145.43C54.8998 145.66 54.5498 145.85 54.1698 146.02C53.7798 146.19 53.3598 146.31 52.9098 146.41C52.4598 146.5 51.9798 146.55 51.4898 146.55C50.6498 146.55 49.8898 146.4 49.1898 146.1C48.4998 145.8 47.8998 145.36 47.3998 144.79C46.8998 144.22 46.5098 143.52 46.2398 142.69C45.9598 141.86 45.8198 140.92 45.8198 139.86C45.8198 138.86 45.9498 137.95 46.2198 137.13C46.4898 136.31 46.8698 135.6 47.3798 135.01C47.8898 134.42 48.5098 133.95 49.2498 133.63C49.9898 133.3 50.8298 133.14 51.7798 133.14C52.6398 133.14 53.3998 133.28 54.0598 133.55C54.7298 133.82 55.3098 134.19 55.7998 134.65L55.4998 135.07ZM63.0298 145.86C63.5298 146.34 64.2198 146.59 65.1098 146.59C65.6698 146.59 66.1998 146.47 66.7098 146.24C67.2298 146.02 67.6498 145.73 67.9898 145.36L67.6498 144.81C67.5798 144.72 67.5098 144.68 67.4398 144.68C67.3798 144.68 67.2998 144.73 67.1898 144.82C67.0798 144.91 66.9498 145.01 66.7798 145.12C66.6098 145.23 66.4098 145.33 66.1798 145.42C65.9498 145.51 65.6798 145.56 65.3598 145.56C65.1098 145.56 64.8698 145.52 64.6498 145.44C64.4198 145.36 64.2298 145.24 64.0698 145.07C63.9098 144.9 63.7798 144.69 63.6898 144.43C63.5998 144.18 63.5498 143.87 63.5498 143.51V134.66H67.6898V133.73H63.5498V128.75H62.9598C62.8598 128.75 62.7898 128.78 62.7298 128.84C62.6698 128.9 62.6398 128.97 62.6298 129.05L62.3198 133.72L60.0698 133.88V134.37C60.0698 134.46 60.0998 134.54 60.1598 134.59C60.2198 134.64 60.2998 134.67 60.3998 134.67H62.2898V143.59C62.2898 144.61 62.5298 145.38 63.0298 145.86ZM75.7902 128.84C75.7902 129 75.7602 129.14 75.6902 129.28C75.6202 129.42 75.5402 129.54 75.4302 129.64C75.3202 129.75 75.2002 129.83 75.0602 129.89C74.9202 129.95 74.7702 129.98 74.6102 129.98C74.4502 129.98 74.3002 129.95 74.1602 129.89C74.0202 129.83 73.9002 129.75 73.7902 129.64C73.6802 129.54 73.6002 129.42 73.5402 129.28C73.4802 129.15 73.4502 129 73.4502 128.84C73.4502 128.68 73.4802 128.53 73.5402 128.39C73.6002 128.25 73.6902 128.12 73.7902 128.02C73.9002 127.91 74.0202 127.83 74.1602 127.77C74.3002 127.71 74.4502 127.68 74.6102 127.68C74.7702 127.68 74.9202 127.71 75.0602 127.77C75.2002 127.83 75.3202 127.91 75.4302 128.02C75.5402 128.12 75.6202 128.25 75.6902 128.39C75.7502 128.53 75.7902 128.68 75.7902 128.84ZM75.2302 133.33V146.37H73.9702V133.33H75.2302ZM90.0798 133.6C89.3398 133.28 88.4898 133.12 87.5498 133.12C86.6098 133.12 85.7598 133.28 85.0198 133.6C84.2798 133.92 83.6498 134.37 83.1298 134.96C82.6098 135.55 82.2198 136.25 81.9498 137.08C81.6798 137.9 81.5498 138.82 81.5498 139.85C81.5498 140.88 81.6798 141.8 81.9498 142.62C82.2198 143.44 82.6098 144.14 83.1298 144.73C83.6398 145.32 84.2698 145.77 85.0198 146.08C85.7598 146.39 86.6098 146.55 87.5498 146.55C88.4898 146.55 89.3298 146.39 90.0798 146.08C90.8298 145.77 91.4598 145.31 91.9698 144.73C92.4798 144.15 92.8698 143.44 93.1398 142.62C93.4098 141.79 93.5398 140.87 93.5398 139.85C93.5398 138.83 93.4098 137.91 93.1398 137.08C92.8698 136.25 92.4798 135.54 91.9698 134.96C91.4498 134.37 90.8298 133.92 90.0798 133.6ZM89.6098 145.16C89.0198 145.43 88.3398 145.56 87.5498 145.56C86.7698 145.56 86.0798 145.43 85.4898 145.16C84.8998 144.89 84.4198 144.51 84.0198 144.01C83.6198 143.51 83.3298 142.91 83.1298 142.21C82.9298 141.5 82.8298 140.71 82.8298 139.84C82.8298 138.98 82.9298 138.19 83.1298 137.48C83.3298 136.77 83.6298 136.16 84.0198 135.66C84.4098 135.16 84.8998 134.77 85.4898 134.5C86.0798 134.23 86.7598 134.09 87.5498 134.09C88.3398 134.09 89.0198 134.23 89.6098 134.5C90.1998 134.77 90.6898 135.16 91.0798 135.66C91.4698 136.17 91.7698 136.77 91.9598 137.48C92.1498 138.19 92.2498 138.97 92.2498 139.84C92.2498 140.72 92.1498 141.51 91.9598 142.21C91.7698 142.91 91.4698 143.51 91.0798 144.01C90.6898 144.51 90.1998 144.89 89.6098 145.16ZM99.5 133.34H100.19C100.42 133.34 100.55 133.45 100.59 133.67L100.71 135.64C101.31 134.89 102.01 134.28 102.81 133.82C103.61 133.36 104.5 133.13 105.48 133.13C106.2 133.13 106.84 133.24 107.39 133.47C107.94 133.7 108.4 134.03 108.76 134.45C109.12 134.88 109.4 135.39 109.58 136C109.77 136.6 109.86 137.29 109.86 138.04V146.38H108.6V138.04C108.6 136.82 108.32 135.86 107.75 135.16C107.19 134.46 106.32 134.12 105.16 134.12C104.3 134.12 103.49 134.34 102.75 134.78C102.01 135.22 101.35 135.83 100.77 136.6V146.38H99.5V133.34ZM124.37 146.01C124.43 146.26 124.6 146.38 124.86 146.38V146.37H125.36V137.87C125.36 137.15 125.28 136.49 125.1 135.9C124.92 135.31 124.66 134.81 124.31 134.39C123.96 133.97 123.52 133.65 122.99 133.43C122.46 133.21 121.85 133.1 121.14 133.1C120.18 133.1 119.32 133.27 118.56 133.62C117.8 133.97 117.08 134.49 116.39 135.17L116.62 135.55C116.71 135.71 116.84 135.79 117.02 135.79C117.15 135.79 117.32 135.7 117.51 135.53C117.7 135.35 117.95 135.16 118.26 134.95C118.57 134.74 118.95 134.54 119.39 134.37C119.83 134.2 120.37 134.11 121.01 134.11C122.04 134.11 122.82 134.44 123.34 135.09C123.87 135.75 124.13 136.67 124.13 137.88V139.24C122.64 139.28 121.37 139.4 120.3 139.61C119.23 139.82 118.37 140.1 117.69 140.45C117.01 140.8 116.52 141.21 116.2 141.68C115.88 142.15 115.72 142.66 115.72 143.21C115.72 143.81 115.82 144.32 116.02 144.74C116.22 145.16 116.48 145.51 116.81 145.78C117.13 146.05 117.51 146.25 117.93 146.38C118.35 146.51 118.79 146.58 119.24 146.58C119.78 146.58 120.27 146.53 120.72 146.43C121.17 146.33 121.59 146.18 121.98 145.99C122.37 145.8 122.74 145.56 123.1 145.28C123.46 145 123.82 144.69 124.18 144.34L124.37 146.01ZM120.98 145.52C120.55 145.63 120.08 145.68 119.57 145.68C119.23 145.68 118.9 145.63 118.57 145.53C118.26 145.44 117.98 145.29 117.74 145.08C117.5 144.87 117.31 144.61 117.16 144.29C117.01 143.98 116.94 143.6 116.94 143.16C116.94 142.7 117.08 142.28 117.36 141.92C117.64 141.55 118.07 141.24 118.66 140.98C119.25 140.72 120 140.51 120.9 140.36C121.81 140.21 122.89 140.12 124.14 140.08V143.48C123.83 143.8 123.52 144.09 123.2 144.36C122.88 144.63 122.54 144.86 122.17 145.06C121.8 145.26 121.41 145.41 120.98 145.52ZM148.67 133.34V146.38H149.92V136.52C150.4 135.77 150.94 135.18 151.55 134.76C152.15 134.33 152.82 134.12 153.53 134.12C154.51 134.12 155.26 134.46 155.77 135.13C156.28 135.8 156.54 136.77 156.54 138.04V146.38H157.8V138.04C157.8 137.4 157.89 136.83 158.08 136.34C158.27 135.85 158.53 135.44 158.85 135.11C159.17 134.78 159.54 134.54 159.96 134.37C160.38 134.2 160.82 134.12 161.28 134.12C162.31 134.12 163.1 134.45 163.66 135.12C164.21 135.79 164.49 136.76 164.49 138.04V146.38H165.75V138.04C165.75 137.25 165.65 136.55 165.46 135.94C165.27 135.33 164.99 134.81 164.62 134.39C164.25 133.97 163.81 133.65 163.29 133.44C162.77 133.23 162.18 133.12 161.53 133.12C161.07 133.12 160.63 133.18 160.19 133.31C159.75 133.44 159.35 133.63 158.98 133.89C158.61 134.15 158.29 134.48 158 134.87C157.71 135.26 157.49 135.73 157.33 136.27C157.13 135.29 156.74 134.51 156.17 133.96C155.6 133.41 154.83 133.13 153.87 133.13C153.46 133.13 153.07 133.19 152.69 133.31C152.31 133.43 151.96 133.6 151.63 133.81C151.3 134.03 150.99 134.29 150.7 134.58C150.41 134.87 150.14 135.2 149.88 135.56L149.76 133.67C149.72 133.45 149.59 133.34 149.36 133.34H148.67ZM177.32 133.12C178.06 133.12 178.75 133.25 179.38 133.5C180.01 133.75 180.56 134.12 181.02 134.61C181.48 135.1 181.84 135.69 182.1 136.4C182.36 137.11 182.49 137.92 182.49 138.84C182.49 139.03 182.46 139.16 182.4 139.23C182.34 139.3 182.25 139.33 182.13 139.33H172.63V139.58C172.63 140.56 172.74 141.42 172.97 142.16C173.2 142.9 173.53 143.53 173.95 144.03C174.37 144.53 174.88 144.91 175.48 145.16C176.08 145.41 176.75 145.54 177.49 145.54C178.15 145.54 178.72 145.47 179.21 145.32C179.69 145.18 180.1 145.01 180.43 144.83C180.76 144.65 181.02 144.49 181.22 144.34C181.41 144.2 181.55 144.12 181.64 144.12C181.75 144.12 181.84 144.16 181.9 144.25L182.24 144.67C182.03 144.93 181.75 145.18 181.4 145.4C181.05 145.63 180.66 145.82 180.24 145.98C179.82 146.14 179.35 146.27 178.86 146.37C178.37 146.47 177.88 146.51 177.38 146.51C176.48 146.51 175.66 146.35 174.92 146.04C174.18 145.73 173.54 145.28 173.01 144.68C172.48 144.09 172.07 143.36 171.78 142.5C171.49 141.64 171.35 140.65 171.35 139.54C171.35 138.61 171.48 137.74 171.75 136.95C172.02 136.16 172.41 135.48 172.91 134.91C173.42 134.34 174.04 133.89 174.78 133.57C175.55 133.28 176.39 133.12 177.32 133.12ZM177.34 134.05C176.66 134.05 176.05 134.16 175.52 134.37C174.98 134.58 174.52 134.88 174.13 135.27C173.74 135.66 173.42 136.14 173.18 136.69C172.94 137.24 172.78 137.86 172.7 138.54H181.37C181.37 137.84 181.27 137.21 181.08 136.66C180.89 136.11 180.61 135.64 180.26 135.25C179.91 134.87 179.48 134.57 178.99 134.37C178.5 134.17 177.94 134.05 177.34 134.05ZM197.49 146.04C197.53 146.27 197.65 146.38 197.87 146.38H198.57V127.31H197.31V135.04C196.83 134.41 196.26 133.93 195.61 133.6C194.95 133.27 194.18 133.11 193.29 133.11C192.36 133.11 191.54 133.28 190.83 133.63C190.12 133.98 189.52 134.46 189.03 135.07C188.54 135.68 188.17 136.39 187.92 137.22C187.67 138.05 187.54 138.94 187.54 139.89C187.54 142.11 187.99 143.78 188.9 144.89C189.8 146 191.06 146.56 192.68 146.56C193.65 146.56 194.53 146.33 195.31 145.86C196.09 145.39 196.78 144.77 197.36 143.98L197.49 146.04ZM195.41 144.87C194.71 145.32 193.91 145.54 193.04 145.54C191.68 145.54 190.65 145.08 189.93 144.17C189.2 143.26 188.84 141.83 188.84 139.89C188.84 139.04 188.94 138.25 189.14 137.54C189.34 136.83 189.64 136.22 190.03 135.71C190.42 135.2 190.91 134.8 191.49 134.52C192.07 134.24 192.75 134.1 193.53 134.1C194.31 134.1 195.01 134.25 195.62 134.56C196.23 134.86 196.8 135.39 197.31 136.13V143.01C196.75 143.8 196.12 144.42 195.41 144.87ZM207.81 128.84C207.81 129 207.78 129.14 207.71 129.28C207.64 129.42 207.56 129.54 207.45 129.64C207.34 129.75 207.22 129.83 207.08 129.89C206.94 129.95 206.79 129.98 206.63 129.98C206.47 129.98 206.32 129.95 206.18 129.89C206.04 129.83 205.92 129.75 205.81 129.64C205.7 129.54 205.62 129.42 205.56 129.28C205.5 129.15 205.47 129 205.47 128.84C205.47 128.68 205.5 128.53 205.56 128.39C205.62 128.25 205.71 128.12 205.81 128.02C205.92 127.91 206.04 127.83 206.18 127.77C206.32 127.71 206.47 127.68 206.63 127.68C206.79 127.68 206.94 127.71 207.08 127.77C207.22 127.83 207.34 127.91 207.45 128.02C207.56 128.12 207.64 128.25 207.71 128.39C207.78 128.53 207.81 128.68 207.81 128.84ZM207.25 133.33V146.37H206V133.33H207.25ZM223.09 135.18C223.13 135.15 223.18 135.11 223.22 135.07L223.52 134.65C223.03 134.19 222.45 133.82 221.78 133.55C221.12 133.28 220.36 133.14 219.5 133.14C218.55 133.14 217.71 133.3 216.97 133.63C216.23 133.95 215.61 134.42 215.1 135.01C214.59 135.6 214.21 136.31 213.94 137.13C213.67 137.95 213.54 138.86 213.54 139.86C213.54 140.92 213.68 141.86 213.96 142.69C214.23 143.52 214.62 144.22 215.12 144.79C215.62 145.36 216.22 145.8 216.91 146.1C217.61 146.4 218.37 146.55 219.21 146.55C219.7 146.55 220.18 146.5 220.63 146.41C221.08 146.31 221.5 146.19 221.89 146.02C222.27 145.85 222.62 145.66 222.93 145.43C223.24 145.21 223.5 144.96 223.7 144.7L223.36 144.28C223.3 144.19 223.21 144.15 223.1 144.15C223 144.15 222.87 144.22 222.71 144.37C222.55 144.52 222.33 144.69 222.05 144.86C221.77 145.03 221.42 145.19 220.99 145.34C220.57 145.49 220.04 145.56 219.4 145.56C218.71 145.56 218.08 145.43 217.52 145.18C216.96 144.92 216.48 144.56 216.08 144.07C215.68 143.58 215.37 142.99 215.16 142.28C214.95 141.57 214.84 140.76 214.84 139.84C214.84 138.95 214.95 138.16 215.16 137.45C215.37 136.74 215.68 136.14 216.08 135.64C216.48 135.14 216.97 134.76 217.56 134.49C218.15 134.22 218.82 134.09 219.58 134.09C220.13 134.09 220.6 134.15 220.98 134.27C221.36 134.39 221.68 134.52 221.94 134.66C222.2 134.8 222.41 134.93 222.56 135.05C222.71 135.17 222.83 135.23 222.92 135.23C222.99 135.23 223.05 135.21 223.09 135.18ZM231.43 128.84C231.43 129 231.4 129.14 231.33 129.28C231.26 129.42 231.18 129.54 231.07 129.64C230.96 129.75 230.84 129.83 230.7 129.89C230.56 129.95 230.41 129.98 230.25 129.98C230.09 129.98 229.94 129.95 229.8 129.89C229.66 129.83 229.54 129.75 229.43 129.64C229.32 129.54 229.24 129.42 229.18 129.28C229.12 129.15 229.09 129 229.09 128.84C229.09 128.68 229.12 128.53 229.18 128.39C229.24 128.25 229.33 128.12 229.43 128.02C229.54 127.91 229.66 127.83 229.8 127.77C229.94 127.71 230.09 127.68 230.25 127.68C230.41 127.68 230.56 127.71 230.7 127.77C230.84 127.83 230.96 127.91 231.07 128.02C231.18 128.12 231.26 128.25 231.33 128.39C231.39 128.53 231.43 128.68 231.43 128.84ZM230.87 133.33V146.37H229.61V133.33H230.87ZM238.86 133.34H238.17V146.38H239.44V136.6C240.02 135.83 240.68 135.22 241.42 134.78C242.16 134.34 242.97 134.12 243.83 134.12C244.99 134.12 245.86 134.46 246.42 135.16C246.99 135.86 247.27 136.82 247.27 138.04V146.38H248.53V138.04C248.53 137.29 248.44 136.6 248.25 136C248.07 135.39 247.79 134.88 247.43 134.45C247.07 134.03 246.61 133.7 246.06 133.47C245.51 133.24 244.87 133.13 244.15 133.13C243.17 133.13 242.28 133.36 241.48 133.82C240.68 134.28 239.98 134.89 239.38 135.64L239.26 133.67C239.22 133.45 239.09 133.34 238.86 133.34ZM260.1 133.12C260.84 133.12 261.53 133.25 262.16 133.5C262.79 133.75 263.34 134.12 263.8 134.61C264.26 135.1 264.62 135.69 264.88 136.4C265.14 137.11 265.27 137.92 265.27 138.84C265.27 139.03 265.24 139.16 265.18 139.23C265.12 139.3 265.03 139.33 264.91 139.33H255.41V139.58C255.41 140.56 255.52 141.42 255.75 142.16C255.98 142.9 256.31 143.53 256.73 144.03C257.15 144.53 257.66 144.91 258.26 145.16C258.86 145.41 259.53 145.54 260.27 145.54C260.93 145.54 261.5 145.47 261.99 145.32C262.47 145.18 262.88 145.01 263.21 144.83C263.54 144.65 263.8 144.49 264 144.34C264.19 144.2 264.33 144.12 264.42 144.12C264.53 144.12 264.62 144.16 264.68 144.25L265.02 144.67C264.81 144.93 264.53 145.18 264.18 145.4C263.83 145.63 263.44 145.82 263.02 145.98C262.6 146.14 262.13 146.27 261.64 146.37C261.15 146.47 260.66 146.51 260.16 146.51C259.26 146.51 258.44 146.35 257.7 146.04C256.96 145.73 256.32 145.28 255.79 144.68C255.26 144.09 254.85 143.36 254.56 142.5C254.27 141.64 254.13 140.65 254.13 139.54C254.13 138.61 254.26 137.74 254.53 136.95C254.8 136.16 255.19 135.48 255.69 134.91C256.2 134.34 256.82 133.89 257.56 133.57C258.33 133.28 259.16 133.12 260.1 133.12ZM260.12 134.05C259.44 134.05 258.83 134.16 258.3 134.37C257.76 134.58 257.3 134.88 256.91 135.27C256.52 135.66 256.2 136.14 255.96 136.69C255.72 137.24 255.56 137.86 255.48 138.54H264.15C264.15 137.84 264.05 137.21 263.86 136.66C263.67 136.11 263.39 135.64 263.04 135.25C262.69 134.87 262.26 134.57 261.77 134.37C261.28 134.17 260.72 134.05 260.12 134.05ZM12.6802 108.9H7.18018V49.9099H12.6802V54.8899C16.5402 51.7699 22.1002 49.9099 28.1102 49.9099C32.5202 49.9099 36.7902 50.9199 40.4602 52.8399L42.3702 53.8399L39.4702 58.4799L37.8102 57.5699C35.2502 56.1599 31.8902 55.4099 28.1102 55.4099C20.6802 55.4099 12.6802 58.6899 12.6802 65.8799V108.9ZM94.9099 109.2C78.6499 109.2 65.4199 95.7699 65.4199 79.2599C65.4199 63.0799 78.6499 49.9199 94.9099 49.9199C111.06 49.9199 124.7 63.3599 124.7 79.2599C124.7 95.7699 111.34 109.2 94.9099 109.2ZM94.9099 55.4199C81.6799 55.4199 70.9199 66.1099 70.9199 79.2599C70.9199 92.9699 81.4599 103.7 94.9099 103.7C108.3 103.7 119.2 92.7399 119.2 79.2599C119.2 66.3299 108.07 55.4199 94.9099 55.4199ZM178.91 109.2C162.65 109.2 149.42 95.7699 149.42 79.2599C149.42 63.0799 162.65 49.9199 178.91 49.9199C195.06 49.9199 208.7 63.3599 208.7 79.2599C208.7 95.7699 195.34 109.2 178.91 109.2ZM178.91 55.4199C165.68 55.4199 154.92 66.1099 154.92 79.2599C154.92 92.9699 165.46 103.7 178.91 103.7C192.3 103.7 203.2 92.7399 203.2 79.2599C203.2 66.3299 192.07 55.4199 178.91 55.4199ZM253.53 109.15C251.77 109.15 250 108.83 248.38 108.15C244.23 106.43 241.85 102.8 241.85 98.18V44.15H230.88V38.65H241.85V13.25H247.35V38.64H258.32V44.14H247.35V98.19C247.35 100.95 249.17 102.27 250.7 102.89C253.52 104.03 257.14 103.47 258.94 101.61L260.26 100.24L264.5 103.95L262.99 105.46C260.6 107.85 257.07 109.15 253.53 109.15ZM351 27C350.055 27 349.138 26.8148 348.275 26.4496C347.442 26.097 346.693 25.5924 346.05 24.9497C345.408 24.307 344.903 23.5585 344.55 22.7249C344.185 21.8616 344 20.9447 344 20C344 19.0553 344.185 18.1384 344.55 17.2751C344.903 16.4415 345.408 15.6929 346.05 15.0502C346.693 14.4076 347.442 13.9029 348.275 13.5504C349.138 13.1852 350.055 13 351 13C351.945 13 352.862 13.1852 353.725 13.5504C354.558 13.903 355.307 14.4076 355.95 15.0503C356.592 15.693 357.097 16.4415 357.45 17.2752C357.815 18.1384 358 19.0553 358 20C358 20.9447 357.815 21.8616 357.45 22.7249C357.097 23.5585 356.592 24.3071 355.95 24.9498C355.307 25.5925 354.558 26.0971 353.725 26.4497C352.862 26.8148 351.945 27 351 27ZM351 14.2017C350.217 14.2017 349.458 14.3549 348.743 14.6572C348.053 14.9492 347.433 15.3674 346.9 15.9C346.367 16.4327 345.949 17.0529 345.657 17.7433C345.355 18.4577 345.202 19.217 345.202 20C345.202 20.783 345.355 21.5423 345.657 22.2567C345.949 22.9471 346.367 23.5673 346.9 24.1C347.433 24.6326 348.053 25.0508 348.743 25.3428C349.458 25.6451 350.217 25.7983 351 25.7983C351.783 25.7983 352.542 25.6451 353.257 25.3428C353.947 25.0508 354.567 24.6326 355.1 24.1C355.633 23.5673 356.051 22.9471 356.343 22.2567C356.645 21.5423 356.798 20.783 356.798 20C356.798 19.217 356.645 18.4577 356.343 17.7433C356.051 17.0529 355.633 16.4327 355.1 15.9C354.567 15.3674 353.947 14.9492 353.257 14.6572C352.542 14.3549 351.783 14.2017 351 14.2017ZM348.667 16.5352H351.154C352.64 16.5352 353.591 17.3278 353.591 18.7447C353.591 19.8148 352.997 20.4886 352.154 20.7858L353.779 23.471H352.452L350.985 21.0237C350.977 21.0151 350.706 21.0214 350.629 21.0232L350.609 21.0237H349.806V23.4711H348.667V16.5352ZM351.104 20.003C351.907 20.003 352.432 19.5671 352.432 18.7644C352.432 17.9619 351.907 17.5754 351.084 17.5754H349.806V20.003H351.104Z" fill="#213829"/>
</svg>
