<svg width="1440" height="742" viewBox="0 0 1440 742" fill="none" xmlns="http://www.w3.org/2000/svg">
<g clip-path="url(#clip0_251_13381)">
<path d="M1551 65.6931L1073.8 7.72812C906.954 -12.5387 737.68 7.19484 579.969 65.2977C420.88 123.908 250.045 143.469 81.8256 122.335C81.8256 122.335 -286 74.5 -368.999 65.697C-434.173 58.7847 -807.642 30.8522 -1108.37 71.6248C-1244.53 90.0859 -1331 213.713 -1331 351.122C-1331 554.754 -1146.29 700.201 -942.783 707.19C-787.288 712.53 -660.635 742.171 -368.999 742.171L-93.6813 741.542C115.82 741.063 323.058 687.358 508.811 585.408C691.463 485.16 894.937 431.533 1100.97 429.341L1551 424.553C1887.44 424.553 2243.06 239.969 2426.52 203.803C2446.75 199.816 2462.5 182.677 2462.5 162.064C2462.5 140.122 2444.75 122.336 2422.81 121.885C2213.31 117.574 1776.56 83.364 1551 65.6931Z" fill="#F5ECE0"/>
</g>
<defs>
<clipPath id="clip0_251_13381">
<rect width="1920" height="742" fill="white" transform="translate(-394)"/>
</clipPath>
</defs>
</svg>
