<svg width="476" height="14" viewBox="0 0 476 14" fill="none" xmlns="http://www.w3.org/2000/svg">
<path d="M2.06226 7C8.32892 12.3333 14.5964 12.3333 20.863 7C27.1297 1.66667 33.3967 1.66667 39.6633 7C45.93 12.3333 52.1971 12.3333 58.4637 7C64.7304 1.66667 70.997 1.66667 77.2637 7C83.5303 12.3333 89.8073 12.3333 96.074 7C102.341 1.66667 108.609 1.66667 114.876 7C121.143 12.3333 127.41 12.3333 133.676 7C139.943 1.66667 146.21 1.66667 152.476 7C158.743 12.3333 165.009 12.3333 171.276 7M171.278 7C177.545 1.66667 183.812 1.66667 190.078 7C196.345 12.3333 202.61 12.3333 208.876 7C215.143 1.66667 221.409 1.66667 227.676 7C233.942 12.3333 240.219 12.3333 246.486 7C252.753 1.66667 259.02 1.66667 265.286 7C271.553 12.3333 277.819 12.3333 284.086 7C290.352 1.66667 296.618 1.66667 302.885 7C309.151 12.3333 315.418 12.3333 321.685 7M321.681 7C327.947 1.66667 334.214 1.66667 340.481 7C346.747 12.3333 353.013 12.3333 359.279 7C365.546 1.66667 371.812 1.66667 378.079 7C384.346 12.3333 390.623 12.3333 396.89 7C403.156 1.66667 409.423 1.66667 415.689 7C421.956 12.3333 428.223 12.3333 434.49 7C440.756 1.66667 447.023 1.66667 453.289 7C459.556 12.3333 465.823 12.3333 472.089 7M472.092 7C478.358 1.66667 484.625 1.66667 490.892 7C497.158 12.3333 503.424 12.3333 509.69 7C515.957 1.66667 522.224 1.66667 528.49 7C534.757 12.3333 541.034 12.3333 547.301 7C553.567 1.66667 559.835 1.66667 566.101 7C572.368 12.3333 578.635 12.3333 584.901 7C591.168 1.66667 597.435 1.66667 603.701 7C609.968 12.3333 616.235 12.3333 622.501 7C628.768 1.66667 635.034 1.66667 641.301 7C647.567 12.3333 653.833 12.3333 660.099 7C666.366 1.66667 672.633 1.66667 678.899 7C685.166 12.3333 691.443 12.3333 697.71 7C703.976 1.66667 710.243 1.66667 716.51 7C722.776 12.3333 729.043 12.3333 735.31 7C741.576 1.66667 747.843 1.66667 754.11 7C760.376 12.3333 766.643 12.3333 772.91 7M772.907 7C779.174 1.66667 785.441 1.66667 791.707 7C797.974 12.3333 804.239 12.3333 810.506 7C816.773 1.66667 823.039 1.66667 829.306 7C835.573 12.3333 841.85 12.3333 848.116 7C854.383 1.66667 860.65 1.66667 866.916 7C873.183 12.3333 879.45 12.3333 885.716 7C891.983 1.66667 898.25 1.66667 904.516 7C910.783 12.3333 917.05 12.3333 923.316 7C929.583 1.66667 935.849 1.66667 942.116 7C948.382 12.3333 954.648 12.3333 960.914 7C967.181 1.66667 973.448 1.66667 979.714 7C985.981 12.3333 992.258 12.3333 998.525 7C1004.79 1.66667 1011.06 1.66667 1017.32 7C1023.59 12.3333 1029.86 12.3333 1036.12 7C1042.39 1.66667 1048.66 1.66667 1054.92 7C1061.19 12.3333 1067.46 12.3333 1073.72 7" stroke="#EAD8C0" stroke-width="6"/>
</svg>
