<svg width="1440" height="742" viewBox="0 0 1440 742" fill="none" xmlns="http://www.w3.org/2000/svg">
<g clip-path="url(#clip0_251_13561)">
<path d="M1928 65.6931L1450.8 7.72812C1283.95 -12.5387 1114.68 7.19484 956.969 65.2977C797.88 123.908 627.045 143.469 458.826 122.335C458.826 122.335 91 74.5 8.00061 65.697C-57.1731 58.7847 -430.642 30.8522 -731.367 71.6248C-867.53 90.0859 -954 213.713 -954 351.122C-954 554.754 -769.295 700.201 -565.783 707.19C-410.288 712.53 -283.635 742.171 8.00061 742.171L283.319 741.542C492.82 741.063 700.058 687.358 885.811 585.408C1068.46 485.16 1271.94 431.533 1477.97 429.341L1928 424.553C2264.44 424.553 2620.06 239.969 2803.52 203.803C2823.75 199.816 2839.5 182.677 2839.5 162.064C2839.5 140.122 2821.75 122.336 2799.81 121.885C2590.31 117.574 2153.56 83.364 1928 65.6931Z" fill="#F5ECE0"/>
</g>
<defs>
<clipPath id="clip0_251_13561">
<rect width="1920" height="742" fill="white" transform="translate(-17)"/>
</clipPath>
</defs>
</svg>
